<?xml version="1.0" encoding="UTF-8"?>
<svg xmlns="http://www.w3.org/2000/svg" xmlns:xlink="http://www.w3.org/1999/xlink" width="220px" height="98px" viewBox="0 0 221 98" version="1.1">
<defs>
<linearGradient id="linear0" gradientUnits="userSpaceOnUse" x1="95.74" y1="331.24" x2="95.74" y2="154.08" gradientTransform="matrix(0.481366,0,0,0.482643,-4.144562,-74.317688)">
<stop offset="0" style="stop-color:rgb(56.078431%,87.45098%,12.156863%);stop-opacity:1;"/>
<stop offset="0.01" style="stop-color:rgb(55.686275%,86.666667%,12.156863%);stop-opacity:1;"/>
<stop offset="0.28" style="stop-color:rgb(46.666667%,74.117647%,9.411765%);stop-opacity:1;"/>
<stop offset="0.54" style="stop-color:rgb(40%,65.490196%,7.45098%);stop-opacity:1;"/>
<stop offset="0.79" style="stop-color:rgb(36.078431%,60%,6.27451%);stop-opacity:1;"/>
<stop offset="1" style="stop-color:rgb(34.901961%,58.039216%,5.882353%);stop-opacity:1;"/>
</linearGradient>
<linearGradient id="linear1" gradientUnits="userSpaceOnUse" x1="96.16" y1="330.65" x2="96.16" y2="154.67" gradientTransform="matrix(0.481366,0,0,0.482643,-4.144562,-74.317688)">
<stop offset="0" style="stop-color:rgb(56.078431%,87.45098%,12.156863%);stop-opacity:1;"/>
<stop offset="0.01" style="stop-color:rgb(55.686275%,86.666667%,12.156863%);stop-opacity:1;"/>
<stop offset="0.28" style="stop-color:rgb(46.666667%,74.117647%,9.411765%);stop-opacity:1;"/>
<stop offset="0.54" style="stop-color:rgb(40%,65.490196%,7.45098%);stop-opacity:1;"/>
<stop offset="0.79" style="stop-color:rgb(36.078431%,60%,6.27451%);stop-opacity:1;"/>
<stop offset="1" style="stop-color:rgb(34.901961%,58.039216%,5.882353%);stop-opacity:1;"/>
</linearGradient>
</defs>
<g id="surface1">
<path style=" stroke:none;fill-rule:nonzero;fill:rgb(57.254902%,85.882353%,13.333333%);fill-opacity:1;" d="M 81.207031 33.3125 L 84.289062 34.242188 C 84.121094 35.027344 83.792969 35.765625 83.324219 36.414062 C 82.890625 36.984375 82.320312 37.433594 81.667969 37.726562 C 80.867188 38.050781 80.011719 38.199219 79.152344 38.171875 C 78.113281 38.210938 77.078125 38.027344 76.117188 37.632812 C 75.265625 37.210938 74.554688 36.546875 74.078125 35.726562 C 73.46875 34.667969 73.175781 33.460938 73.226562 32.246094 C 73.226562 30.359375 73.726562 28.910156 74.726562 27.902344 C 75.730469 26.890625 77.144531 26.382812 78.972656 26.382812 C 80.160156 26.316406 81.335938 26.621094 82.34375 27.253906 C 83.222656 27.925781 83.863281 28.863281 84.167969 29.929688 L 81.058594 30.613281 C 80.980469 30.34375 80.867188 30.089844 80.714844 29.855469 C 80.527344 29.59375 80.28125 29.378906 79.992188 29.234375 C 79.007812 28.761719 77.828125 29.078125 77.207031 29.976562 C 76.835938 30.664062 76.671875 31.441406 76.726562 32.222656 C 76.726562 33.484375 76.917969 34.347656 77.300781 34.824219 C 78.140625 35.703125 79.523438 35.761719 80.4375 34.957031 C 80.832031 34.488281 81.097656 33.917969 81.207031 33.3125 Z M 81.207031 33.3125 "/>
<path style=" stroke:none;fill-rule:nonzero;fill:rgb(57.254902%,85.882353%,13.333333%);fill-opacity:1;" d="M 85.546875 32.277344 C 85.546875 30.417969 86.066406 28.972656 87.101562 27.933594 C 88.132812 26.902344 89.578125 26.382812 91.433594 26.382812 C 93.292969 26.382812 94.804688 26.890625 95.8125 27.910156 C 96.816406 28.929688 97.347656 30.359375 97.347656 32.191406 C 97.386719 33.320312 97.160156 34.445312 96.675781 35.46875 C 96.246094 36.308594 95.574219 37 94.753906 37.460938 C 93.777344 37.964844 92.6875 38.210938 91.589844 38.171875 C 90.496094 38.210938 89.410156 38 88.40625 37.558594 C 87.546875 37.136719 86.835938 36.464844 86.363281 35.628906 C 85.792969 34.605469 85.511719 33.449219 85.546875 32.277344 Z M 89.0625 32.277344 C 89.0625 33.425781 89.277344 34.253906 89.703125 34.753906 C 90.15625 35.234375 90.789062 35.507812 91.449219 35.507812 C 92.109375 35.507812 92.742188 35.234375 93.199219 34.753906 C 93.609375 34.261719 93.816406 33.378906 93.816406 32.101562 C 93.816406 31.027344 93.601562 30.242188 93.167969 29.75 C 92.726562 29.246094 92.078125 28.972656 91.410156 29.007812 C 90.757812 28.984375 90.128906 29.261719 89.707031 29.757812 C 89.277344 30.304688 89.0625 31.136719 89.0625 32.296875 Z M 89.0625 32.277344 "/>
<path style=" stroke:none;fill-rule:nonzero;fill:rgb(57.254902%,85.882353%,13.333333%);fill-opacity:1;" d="M 99.183594 26.554688 L 103.804688 26.554688 L 105.585938 33.492188 L 107.359375 26.554688 L 111.976562 26.554688 L 111.976562 37.953125 L 109.085938 37.953125 L 109.085938 29.265625 L 106.871094 37.953125 L 104.269531 37.953125 L 102.054688 29.265625 L 102.054688 37.953125 L 99.167969 37.953125 Z M 99.183594 26.554688 "/>
<path style=" stroke:none;fill-rule:nonzero;fill:rgb(57.254902%,85.882353%,13.333333%);fill-opacity:1;" d="M 114.222656 26.554688 L 120.804688 26.554688 C 121.71875 26.492188 122.621094 26.785156 123.324219 27.371094 C 123.902344 27.882812 124.222656 28.621094 124.207031 29.394531 C 124.222656 30.027344 123.996094 30.648438 123.578125 31.125 C 123.242188 31.484375 122.820312 31.746094 122.355469 31.886719 C 123.050781 32.015625 123.6875 32.371094 124.160156 32.902344 C 124.554688 33.417969 124.761719 34.058594 124.738281 34.710938 C 124.742188 35.269531 124.601562 35.820312 124.324219 36.304688 C 124.054688 36.769531 123.667969 37.15625 123.199219 37.421875 C 122.78125 37.632812 122.328125 37.757812 121.863281 37.800781 C 121.074219 37.902344 120.546875 37.953125 120.289062 37.953125 L 114.222656 37.953125 Z M 117.769531 31.023438 L 119.296875 31.023438 C 119.699219 31.0625 120.105469 30.964844 120.441406 30.738281 C 120.664062 30.527344 120.785156 30.226562 120.765625 29.917969 C 120.777344 29.625 120.660156 29.339844 120.441406 29.140625 C 120.109375 28.925781 119.714844 28.824219 119.320312 28.863281 L 117.769531 28.863281 Z M 117.769531 35.503906 L 119.566406 35.503906 C 120.019531 35.546875 120.46875 35.433594 120.847656 35.179688 C 121.09375 34.964844 121.230469 34.644531 121.21875 34.316406 C 121.226562 34 121.09375 33.699219 120.851562 33.5 C 120.464844 33.257812 120.011719 33.152344 119.558594 33.195312 L 117.777344 33.195312 Z M 117.769531 35.503906 "/>
<path style=" stroke:none;fill-rule:nonzero;fill:rgb(57.254902%,85.882353%,13.333333%);fill-opacity:1;" d="M 126.566406 26.554688 L 135.980469 26.554688 L 135.980469 28.96875 L 130.085938 28.96875 L 130.085938 30.777344 L 135.550781 30.777344 L 135.550781 33.105469 L 130.085938 33.105469 L 130.085938 35.351562 L 136.148438 35.351562 L 136.148438 37.933594 L 126.566406 37.933594 Z M 126.566406 26.554688 "/>
<path style=" stroke:none;fill-rule:nonzero;fill:rgb(57.254902%,85.882353%,13.333333%);fill-opacity:1;" d="M 138.066406 26.554688 L 141.347656 26.554688 L 145.632812 32.859375 L 145.632812 26.554688 L 148.929688 26.554688 L 148.929688 37.953125 L 145.617188 37.953125 L 141.359375 31.679688 L 141.359375 37.953125 L 138.050781 37.953125 Z M 138.066406 26.554688 "/>
<path style=" stroke:none;fill-rule:nonzero;fill:rgb(57.254902%,85.882353%,13.333333%);fill-opacity:1;" d="M 151.269531 26.554688 L 160.683594 26.554688 L 160.683594 28.96875 L 154.792969 28.96875 L 154.792969 30.777344 L 160.261719 30.777344 L 160.261719 33.105469 L 154.792969 33.105469 L 154.792969 35.351562 L 160.859375 35.351562 L 160.859375 37.933594 L 151.269531 37.933594 Z M 151.269531 26.554688 "/>
<path style=" stroke:none;fill-rule:nonzero;fill:rgb(57.254902%,85.882353%,13.333333%);fill-opacity:1;" d="M 162.765625 26.554688 L 171.453125 26.554688 L 171.453125 29 L 166.292969 29 L 166.292969 30.996094 L 170.695312 30.996094 L 170.695312 33.3125 L 166.292969 33.3125 L 166.292969 37.96875 L 162.765625 37.96875 Z M 162.765625 26.554688 "/>
<path style=" stroke:none;fill-rule:nonzero;fill:rgb(57.254902%,85.882353%,13.333333%);fill-opacity:1;" d="M 173.480469 26.554688 L 177 26.554688 L 177 37.953125 L 173.480469 37.953125 Z M 173.480469 26.554688 "/>
<path style=" stroke:none;fill-rule:nonzero;fill:rgb(57.254902%,85.882353%,13.333333%);fill-opacity:1;" d="M 187.097656 33.3125 L 190.171875 34.242188 C 190.011719 35.027344 189.683594 35.769531 189.210938 36.414062 C 188.777344 36.984375 188.207031 37.4375 187.554688 37.726562 C 186.757812 38.050781 185.902344 38.199219 185.042969 38.171875 C 184.003906 38.210938 182.96875 38.027344 182.007812 37.632812 C 181.164062 37.210938 180.457031 36.550781 179.984375 35.730469 C 179.375 34.675781 179.082031 33.46875 179.128906 32.25 C 179.128906 30.363281 179.628906 28.917969 180.628906 27.90625 C 181.625 26.894531 183.042969 26.390625 184.878906 26.386719 C 186.066406 26.320312 187.242188 26.625 188.246094 27.257812 C 189.132812 27.925781 189.773438 28.867188 190.078125 29.933594 L 186.957031 30.613281 C 186.886719 30.34375 186.769531 30.085938 186.617188 29.855469 C 186.429688 29.59375 186.183594 29.378906 185.898438 29.234375 C 185.597656 29.085938 185.269531 29.011719 184.9375 29.015625 C 184.199219 28.984375 183.5 29.355469 183.105469 29.980469 C 182.734375 30.667969 182.566406 31.445312 182.625 32.226562 C 182.625 33.492188 182.816406 34.355469 183.199219 34.828125 C 184.039062 35.703125 185.421875 35.765625 186.335938 34.960938 C 186.730469 34.488281 186.992188 33.917969 187.097656 33.3125 Z M 187.097656 33.3125 "/>
<path style=" stroke:none;fill-rule:nonzero;fill:rgb(57.254902%,85.882353%,13.333333%);fill-opacity:1;" d="M 192.023438 26.554688 L 195.539062 26.554688 L 195.539062 37.953125 L 192.023438 37.953125 Z M 192.023438 26.554688 "/>
<path style=" stroke:none;fill-rule:nonzero;fill:rgb(57.254902%,85.882353%,13.333333%);fill-opacity:1;" d="M 197.621094 32.277344 C 197.621094 30.417969 198.136719 28.972656 199.171875 27.933594 C 200.203125 26.898438 201.648438 26.382812 203.503906 26.382812 C 205.390625 26.382812 206.851562 26.890625 207.878906 27.910156 C 208.90625 28.929688 209.417969 30.359375 209.414062 32.191406 C 209.457031 33.324219 209.226562 34.445312 208.738281 35.46875 C 208.304688 36.308594 207.636719 37 206.8125 37.460938 C 205.835938 37.964844 204.75 38.210938 203.652344 38.171875 C 202.558594 38.210938 201.46875 38 200.46875 37.558594 C 199.609375 37.136719 198.898438 36.464844 198.425781 35.628906 C 197.859375 34.605469 197.578125 33.449219 197.621094 32.277344 Z M 201.132812 32.277344 C 201.132812 33.425781 201.347656 34.253906 201.773438 34.753906 C 202.230469 35.234375 202.859375 35.507812 203.523438 35.507812 C 204.183594 35.507812 204.8125 35.234375 205.269531 34.753906 C 205.683594 34.261719 205.890625 33.378906 205.890625 32.101562 C 205.890625 31.027344 205.671875 30.242188 205.238281 29.75 C 204.796875 29.246094 204.152344 28.972656 203.484375 29.007812 C 202.828125 28.984375 202.203125 29.261719 201.777344 29.757812 C 201.351562 30.304688 201.132812 31.136719 201.132812 32.296875 Z M 201.132812 32.277344 "/>
<path style=" stroke:none;fill-rule:nonzero;fill:rgb(57.254902%,85.882353%,13.333333%);fill-opacity:1;" d="M 210.683594 34.199219 L 214.023438 33.992188 C 214.0625 34.4375 214.214844 34.867188 214.46875 35.238281 C 214.84375 35.703125 215.421875 35.960938 216.019531 35.925781 C 216.433594 35.957031 216.847656 35.832031 217.179688 35.574219 C 217.429688 35.382812 217.574219 35.082031 217.574219 34.765625 C 217.574219 34.449219 217.429688 34.152344 217.179688 33.957031 C 216.632812 33.613281 216.019531 33.386719 215.378906 33.296875 C 213.835938 32.949219 212.738281 32.492188 212.085938 31.910156 C 211.4375 31.371094 211.070312 30.5625 211.089844 29.714844 C 211.089844 29.121094 211.269531 28.542969 211.597656 28.050781 C 211.976562 27.5 212.507812 27.074219 213.125 26.824219 C 214.019531 26.488281 214.96875 26.335938 215.921875 26.375 C 217.375 26.375 218.484375 26.648438 219.246094 27.191406 C 220.054688 27.8125 220.546875 28.757812 220.605469 29.773438 L 217.292969 29.972656 C 217.273438 29.542969 217.078125 29.140625 216.753906 28.863281 C 216.425781 28.585938 216 28.453125 215.574219 28.5 C 215.246094 28.476562 214.917969 28.566406 214.652344 28.761719 C 214.453125 28.910156 214.339844 29.144531 214.339844 29.394531 C 214.347656 29.585938 214.441406 29.761719 214.597656 29.875 C 214.957031 30.101562 215.359375 30.242188 215.777344 30.296875 C 216.914062 30.5 218.019531 30.839844 219.074219 31.304688 C 219.667969 31.578125 220.167969 32.015625 220.519531 32.570312 C 220.832031 33.074219 221 33.65625 221 34.253906 C 221.003906 34.972656 220.792969 35.675781 220.394531 36.273438 C 219.980469 36.898438 219.394531 37.386719 218.703125 37.679688 C 217.832031 38.027344 216.902344 38.191406 215.964844 38.164062 C 214.039062 38.164062 212.699219 37.789062 211.945312 37.042969 C 211.195312 36.28125 210.746094 35.269531 210.683594 34.199219 Z M 210.683594 34.199219 "/>
<path style=" stroke:none;fill-rule:nonzero;fill:rgb(61.960784%,91.372549%,24.313725%);fill-opacity:1;" d="M 80.675781 54.160156 L 76.726562 44.296875 C 76.695312 44.230469 76.679688 44.15625 76.675781 44.085938 C 76.675781 43.941406 76.738281 43.804688 76.839844 43.707031 C 76.941406 43.597656 77.085938 43.535156 77.234375 43.539062 C 77.34375 43.542969 77.449219 43.578125 77.539062 43.636719 C 77.632812 43.691406 77.703125 43.777344 77.742188 43.875 L 81.167969 52.507812 L 84.601562 43.875 C 84.636719 43.773438 84.707031 43.683594 84.800781 43.625 C 84.890625 43.570312 84.992188 43.539062 85.097656 43.539062 C 85.246094 43.535156 85.386719 43.59375 85.492188 43.703125 C 85.648438 43.859375 85.6875 44.097656 85.597656 44.296875 L 81.714844 54.066406 C 81.671875 54.175781 81.605469 54.277344 81.523438 54.363281 C 81.445312 54.433594 81.347656 54.476562 81.246094 54.484375 L 81.105469 54.484375 C 80.917969 54.457031 80.753906 54.335938 80.675781 54.160156 Z M 80.675781 54.160156 "/>
<path style=" stroke:none;fill-rule:nonzero;fill:rgb(61.960784%,91.372549%,24.313725%);fill-opacity:1;" d="M 87.007812 45.125 C 86.875 45 86.804688 44.824219 86.8125 44.644531 C 86.804688 44.464844 86.875 44.285156 87.007812 44.160156 C 87.132812 44.03125 87.308594 43.964844 87.488281 43.972656 C 87.667969 43.964844 87.84375 44.035156 87.96875 44.160156 C 88.101562 44.285156 88.171875 44.464844 88.164062 44.644531 C 88.164062 44.820312 88.09375 44.988281 87.96875 45.113281 C 87.84375 45.238281 87.671875 45.308594 87.496094 45.304688 C 87.316406 45.320312 87.136719 45.257812 87.007812 45.125 Z M 87.078125 54.296875 C 86.972656 54.195312 86.910156 54.054688 86.914062 53.90625 L 86.914062 47.003906 C 86.910156 46.851562 86.96875 46.707031 87.078125 46.605469 C 87.183594 46.5 87.324219 46.4375 87.472656 46.441406 C 87.621094 46.4375 87.761719 46.496094 87.863281 46.605469 C 87.964844 46.710938 88.023438 46.855469 88.019531 47.003906 L 88.019531 53.890625 C 88.019531 54.035156 87.960938 54.175781 87.859375 54.28125 C 87.757812 54.382812 87.617188 54.441406 87.472656 54.441406 C 87.328125 54.445312 87.183594 54.386719 87.078125 54.28125 Z M 87.078125 54.296875 "/>
<path style=" stroke:none;fill-rule:nonzero;fill:rgb(61.960784%,91.372549%,24.313725%);fill-opacity:1;" d="M 92.320312 54.363281 C 92.234375 54.304688 92.160156 54.21875 92.113281 54.125 L 89.269531 47.207031 C 89.230469 47.132812 89.210938 47.054688 89.210938 46.96875 C 89.210938 46.828125 89.265625 46.691406 89.367188 46.589844 C 89.550781 46.402344 89.839844 46.371094 90.058594 46.511719 C 90.148438 46.574219 90.21875 46.660156 90.261719 46.761719 L 92.609375 52.617188 L 94.964844 46.785156 C 95 46.683594 95.070312 46.597656 95.160156 46.535156 C 95.25 46.480469 95.351562 46.449219 95.453125 46.449219 C 95.601562 46.445312 95.742188 46.503906 95.847656 46.605469 C 95.953125 46.707031 96.011719 46.847656 96.011719 46.996094 C 96.011719 47.074219 95.996094 47.15625 95.964844 47.230469 L 93.109375 54.148438 C 93.050781 54.242188 92.980469 54.328125 92.898438 54.402344 C 92.8125 54.460938 92.707031 54.492188 92.601562 54.484375 C 92.496094 54.476562 92.398438 54.433594 92.320312 54.363281 Z M 92.320312 54.363281 "/>
<path style=" stroke:none;fill-rule:nonzero;fill:rgb(61.960784%,91.372549%,24.313725%);fill-opacity:1;" d="M 98.738281 54.1875 C 97.765625 53.777344 96.992188 53.003906 96.582031 52.027344 C 96.164062 51.035156 96.164062 49.914062 96.582031 48.921875 C 96.785156 48.433594 97.082031 47.992188 97.453125 47.621094 C 97.820312 47.253906 98.257812 46.957031 98.738281 46.753906 C 99.726562 46.335938 100.84375 46.335938 101.832031 46.753906 C 102.316406 46.960938 102.753906 47.253906 103.128906 47.621094 C 103.878906 48.375 104.304688 49.386719 104.320312 50.449219 C 104.324219 50.59375 104.269531 50.730469 104.167969 50.832031 C 104.066406 50.929688 103.929688 50.984375 103.789062 50.976562 L 97.484375 50.976562 C 97.527344 51.316406 97.632812 51.644531 97.792969 51.941406 C 97.953125 52.242188 98.164062 52.507812 98.414062 52.734375 C 98.671875 52.957031 98.964844 53.132812 99.28125 53.257812 C 99.605469 53.386719 99.945312 53.449219 100.292969 53.449219 C 100.5625 53.453125 100.832031 53.425781 101.097656 53.359375 C 101.328125 53.289062 101.546875 53.191406 101.757812 53.070312 C 101.855469 53.007812 101.972656 52.972656 102.09375 52.96875 C 102.238281 52.96875 102.375 53.035156 102.46875 53.148438 C 102.570312 53.257812 102.628906 53.398438 102.628906 53.550781 C 102.632812 53.734375 102.527344 53.910156 102.363281 53.992188 C 102.082031 54.160156 101.78125 54.289062 101.46875 54.375 C 101.082031 54.464844 100.6875 54.507812 100.292969 54.503906 C 99.757812 54.507812 99.230469 54.398438 98.738281 54.1875 Z M 103.203125 50.054688 C 103.160156 49.703125 103.054688 49.359375 102.890625 49.046875 C 102.734375 48.734375 102.519531 48.457031 102.257812 48.230469 C 101.722656 47.761719 101.039062 47.5 100.332031 47.496094 C 99.617188 47.496094 98.929688 47.765625 98.40625 48.25 C 97.894531 48.722656 97.570312 49.363281 97.492188 50.054688 Z M 103.203125 50.054688 "/>
<path style=" stroke:none;fill-rule:nonzero;fill:rgb(61.960784%,91.372549%,24.313725%);fill-opacity:1;" d="M 109.367188 57.097656 C 109.257812 56.992188 109.195312 56.847656 109.199219 56.695312 L 109.199219 50.484375 C 109.191406 49.410156 109.621094 48.375 110.386719 47.621094 C 110.757812 47.253906 111.191406 46.957031 111.671875 46.753906 C 112.664062 46.335938 113.78125 46.335938 114.773438 46.753906 C 115.253906 46.960938 115.691406 47.253906 116.0625 47.621094 C 116.429688 47.992188 116.722656 48.429688 116.917969 48.914062 C 117.125 49.414062 117.230469 49.945312 117.226562 50.484375 C 117.230469 51.015625 117.125 51.542969 116.917969 52.035156 C 116.71875 52.515625 116.429688 52.953125 116.0625 53.320312 C 115.691406 53.691406 115.253906 53.984375 114.773438 54.1875 C 114.28125 54.398438 113.753906 54.503906 113.222656 54.5 C 112.667969 54.503906 112.117188 54.390625 111.609375 54.167969 C 111.113281 53.949219 110.664062 53.628906 110.296875 53.230469 L 110.296875 56.695312 C 110.300781 56.84375 110.246094 56.988281 110.144531 57.101562 C 110.050781 57.210938 109.90625 57.273438 109.761719 57.265625 C 109.613281 57.265625 109.46875 57.207031 109.367188 57.097656 Z M 114.363281 53.175781 C 114.714844 53.027344 115.03125 52.808594 115.296875 52.535156 C 115.566406 52.269531 115.777344 51.949219 115.921875 51.597656 C 116.070312 51.246094 116.144531 50.867188 116.144531 50.484375 C 116.144531 50.097656 116.070312 49.714844 115.921875 49.355469 C 115.550781 48.449219 114.75 47.789062 113.792969 47.59375 C 112.832031 47.402344 111.839844 47.699219 111.148438 48.390625 C 110.878906 48.667969 110.664062 48.996094 110.523438 49.355469 C 110.371094 49.710938 110.292969 50.097656 110.296875 50.484375 C 110.292969 50.867188 110.371094 51.246094 110.523438 51.597656 C 110.667969 51.949219 110.878906 52.265625 111.148438 52.535156 C 111.421875 52.8125 111.75 53.03125 112.109375 53.175781 C 112.839844 53.480469 113.65625 53.480469 114.386719 53.175781 Z M 114.363281 53.175781 "/>
<path style=" stroke:none;fill-rule:nonzero;fill:rgb(61.960784%,91.372549%,24.313725%);fill-opacity:1;" d="M 121.636719 54.261719 C 121.53125 54.363281 121.394531 54.414062 121.25 54.40625 C 120.886719 54.414062 120.527344 54.347656 120.1875 54.210938 C 119.867188 54.082031 119.574219 53.886719 119.332031 53.640625 C 119.082031 53.390625 118.890625 53.089844 118.765625 52.757812 C 118.628906 52.390625 118.5625 52.003906 118.570312 51.613281 L 118.570312 44.148438 C 118.566406 44 118.617188 43.859375 118.71875 43.75 C 118.816406 43.640625 118.957031 43.582031 119.105469 43.585938 C 119.414062 43.585938 119.664062 43.835938 119.664062 44.148438 L 119.664062 51.597656 C 119.636719 52.054688 119.78125 52.503906 120.070312 52.859375 C 120.367188 53.175781 120.785156 53.351562 121.21875 53.339844 L 121.257812 53.339844 C 121.402344 53.339844 121.542969 53.394531 121.644531 53.5 C 121.746094 53.601562 121.800781 53.742188 121.800781 53.886719 C 121.796875 54.027344 121.738281 54.164062 121.636719 54.261719 Z M 121.636719 54.261719 "/>
<path style=" stroke:none;fill-rule:nonzero;fill:rgb(61.960784%,91.372549%,24.313725%);fill-opacity:1;" d="M 124.792969 54.1875 C 124.3125 53.984375 123.875 53.691406 123.503906 53.320312 C 123.132812 52.953125 122.835938 52.511719 122.632812 52.027344 C 122.214844 51.035156 122.214844 49.914062 122.632812 48.921875 C 122.835938 48.433594 123.132812 47.992188 123.503906 47.621094 C 123.875 47.253906 124.3125 46.960938 124.792969 46.753906 C 125.78125 46.335938 126.898438 46.335938 127.882812 46.753906 C 128.367188 46.960938 128.808594 47.253906 129.183594 47.621094 C 129.550781 47.992188 129.84375 48.425781 130.050781 48.90625 C 130.261719 49.394531 130.371094 49.917969 130.375 50.449219 C 130.386719 50.59375 130.335938 50.738281 130.230469 50.839844 C 130.128906 50.945312 129.984375 50.992188 129.839844 50.976562 L 123.539062 50.976562 C 123.582031 51.3125 123.683594 51.640625 123.847656 51.941406 C 124.003906 52.238281 124.214844 52.507812 124.46875 52.734375 C 124.726562 52.957031 125.019531 53.132812 125.339844 53.257812 C 125.660156 53.386719 126 53.449219 126.34375 53.449219 C 126.613281 53.453125 126.886719 53.425781 127.148438 53.359375 C 127.378906 53.289062 127.597656 53.191406 127.808594 53.070312 C 127.90625 53.007812 128.023438 52.972656 128.144531 52.96875 C 128.292969 52.96875 128.433594 53.035156 128.523438 53.148438 C 128.625 53.257812 128.679688 53.402344 128.679688 53.550781 C 128.683594 53.734375 128.582031 53.90625 128.417969 53.992188 C 128.136719 54.160156 127.835938 54.289062 127.519531 54.375 C 127.132812 54.464844 126.738281 54.507812 126.34375 54.503906 C 125.8125 54.507812 125.285156 54.398438 124.792969 54.1875 Z M 129.257812 50.054688 C 129.214844 49.703125 129.109375 49.359375 128.949219 49.046875 C 128.789062 48.734375 128.570312 48.460938 128.308594 48.230469 C 128.046875 47.996094 127.742188 47.8125 127.414062 47.691406 C 127.074219 47.5625 126.71875 47.496094 126.359375 47.496094 C 125.996094 47.496094 125.640625 47.5625 125.304688 47.695312 C 124.980469 47.824219 124.679688 48.011719 124.417969 48.25 C 123.90625 48.722656 123.582031 49.363281 123.503906 50.054688 Z M 129.257812 50.054688 "/>
<path style=" stroke:none;fill-rule:nonzero;fill:rgb(61.960784%,91.372549%,24.313725%);fill-opacity:1;" d="M 131.503906 54.242188 C 131.390625 54.148438 131.332031 54.003906 131.335938 53.859375 L 131.335938 50.308594 C 131.335938 49.800781 131.429688 49.292969 131.613281 48.820312 C 131.796875 48.355469 132.066406 47.933594 132.40625 47.574219 C 133.101562 46.851562 134.0625 46.441406 135.066406 46.441406 C 136.070312 46.441406 137.03125 46.851562 137.726562 47.574219 C 138.066406 47.933594 138.328125 48.355469 138.507812 48.8125 C 138.691406 49.292969 138.785156 49.800781 138.78125 50.308594 L 138.78125 53.867188 C 138.789062 54.015625 138.734375 54.15625 138.628906 54.257812 C 138.527344 54.363281 138.382812 54.417969 138.238281 54.414062 C 138.09375 54.414062 137.953125 54.359375 137.847656 54.257812 C 137.742188 54.15625 137.683594 54.015625 137.691406 53.867188 L 137.691406 50.355469 C 137.691406 49.984375 137.625 49.617188 137.496094 49.273438 C 137.375 48.945312 137.191406 48.640625 136.957031 48.378906 C 136.71875 48.125 136.429688 47.921875 136.109375 47.78125 C 135.785156 47.632812 135.429688 47.558594 135.070312 47.5625 C 134.359375 47.558594 133.679688 47.847656 133.1875 48.367188 C 132.949219 48.621094 132.761719 48.921875 132.636719 49.25 C 132.503906 49.59375 132.4375 49.960938 132.4375 50.328125 L 132.4375 53.867188 C 132.445312 54.011719 132.390625 54.152344 132.292969 54.257812 C 132.191406 54.363281 132.050781 54.417969 131.902344 54.414062 C 131.753906 54.410156 131.609375 54.351562 131.503906 54.242188 Z M 131.503906 54.242188 "/>
<path style=" stroke:none;fill-rule:nonzero;fill:rgb(61.960784%,91.372549%,24.313725%);fill-opacity:1;" d="M 142.441406 54.191406 C 141.964844 53.988281 141.535156 53.691406 141.171875 53.320312 C 140.800781 52.953125 140.511719 52.515625 140.3125 52.035156 C 140.109375 51.542969 140.007812 51.015625 140.011719 50.484375 C 140.007812 49.949219 140.109375 49.417969 140.3125 48.921875 C 140.511719 48.433594 140.800781 47.992188 141.171875 47.621094 C 141.53125 47.25 141.964844 46.953125 142.441406 46.753906 C 143.933594 46.117188 145.664062 46.464844 146.800781 47.621094 C 147.167969 47.992188 147.453125 48.433594 147.648438 48.914062 C 147.851562 49.414062 147.953125 49.945312 147.953125 50.484375 L 147.953125 53.863281 C 147.957031 54.015625 147.898438 54.160156 147.789062 54.269531 C 147.683594 54.378906 147.535156 54.4375 147.382812 54.433594 C 147.238281 54.441406 147.097656 54.382812 147 54.273438 C 146.898438 54.160156 146.847656 54.011719 146.851562 53.863281 L 146.851562 53.269531 C 146.484375 53.652344 146.046875 53.960938 145.558594 54.171875 C 144.5625 54.589844 143.441406 54.589844 142.445312 54.171875 Z M 145.121094 53.175781 C 145.46875 53.03125 145.78125 52.8125 146.035156 52.535156 C 146.296875 52.265625 146.5 51.949219 146.636719 51.597656 C 146.78125 51.246094 146.855469 50.867188 146.851562 50.484375 C 146.851562 50.097656 146.78125 49.710938 146.636719 49.351562 C 146.363281 48.644531 145.8125 48.078125 145.117188 47.78125 C 144.757812 47.628906 144.371094 47.550781 143.980469 47.554688 C 143.210938 47.550781 142.476562 47.859375 141.941406 48.414062 C 141.675781 48.691406 141.464844 49.019531 141.328125 49.378906 C 141.183594 49.738281 141.109375 50.121094 141.109375 50.507812 C 141.105469 50.890625 141.183594 51.269531 141.328125 51.625 C 141.617188 52.328125 142.164062 52.894531 142.859375 53.203125 C 143.214844 53.351562 143.597656 53.429688 143.980469 53.429688 C 144.375 53.421875 144.761719 53.335938 145.121094 53.175781 Z M 145.121094 53.175781 "/>
<path style=" stroke:none;fill-rule:nonzero;fill:rgb(61.960784%,91.372549%,24.313725%);fill-opacity:1;" d="M 149.675781 54.242188 C 149.570312 54.140625 149.511719 53.996094 149.515625 53.847656 L 149.515625 48.996094 C 149.515625 48.65625 149.582031 48.316406 149.714844 48 C 149.847656 47.6875 150.035156 47.40625 150.273438 47.167969 C 150.511719 46.929688 150.792969 46.738281 151.101562 46.609375 C 151.785156 46.324219 152.558594 46.347656 153.222656 46.675781 C 153.574219 46.851562 153.882812 47.101562 154.132812 47.40625 C 154.375 47.101562 154.679688 46.851562 155.023438 46.675781 C 155.375 46.5 155.761719 46.410156 156.15625 46.410156 C 156.84375 46.410156 157.503906 46.679688 158 47.160156 C 158.242188 47.398438 158.4375 47.679688 158.578125 47.992188 C 158.710938 48.308594 158.78125 48.648438 158.777344 48.992188 L 158.777344 53.847656 C 158.785156 53.996094 158.726562 54.140625 158.613281 54.242188 C 158.457031 54.398438 158.21875 54.441406 158.015625 54.355469 C 157.8125 54.269531 157.675781 54.070312 157.675781 53.847656 L 157.675781 49.078125 C 157.675781 48.882812 157.636719 48.683594 157.566406 48.5 C 157.488281 48.320312 157.378906 48.160156 157.242188 48.019531 C 156.960938 47.726562 156.570312 47.5625 156.164062 47.570312 C 155.976562 47.566406 155.789062 47.601562 155.617188 47.675781 C 155.4375 47.746094 155.273438 47.847656 155.132812 47.980469 C 154.855469 48.238281 154.679688 48.597656 154.652344 48.976562 C 154.652344 48.992188 154.652344 49.003906 154.652344 49.015625 L 154.652344 53.84375 C 154.652344 53.992188 154.59375 54.132812 154.488281 54.238281 C 154.386719 54.34375 154.246094 54.398438 154.101562 54.398438 C 153.953125 54.402344 153.816406 54.34375 153.714844 54.238281 C 153.613281 54.132812 153.554688 53.992188 153.5625 53.84375 L 153.5625 49.09375 C 153.5625 48.894531 153.523438 48.695312 153.445312 48.511719 C 153.371094 48.332031 153.265625 48.167969 153.132812 48.027344 C 152.996094 47.882812 152.832031 47.769531 152.652344 47.691406 C 152.46875 47.609375 152.269531 47.566406 152.070312 47.570312 C 151.882812 47.566406 151.695312 47.601562 151.523438 47.675781 C 151.347656 47.742188 151.183594 47.84375 151.042969 47.972656 C 150.910156 48.101562 150.796875 48.253906 150.714844 48.417969 C 150.632812 48.582031 150.582031 48.761719 150.566406 48.945312 C 150.5625 48.957031 150.5625 48.972656 150.566406 48.988281 L 150.566406 53.863281 C 150.566406 54.011719 150.503906 54.15625 150.398438 54.257812 C 150.296875 54.359375 150.160156 54.417969 150.019531 54.417969 C 149.886719 54.402344 149.765625 54.339844 149.675781 54.242188 Z M 149.675781 54.242188 "/>
<path style=" stroke:none;fill-rule:nonzero;fill:rgb(61.960784%,91.372549%,24.313725%);fill-opacity:1;" d="M 162.289062 54.1875 C 161.808594 53.984375 161.371094 53.691406 161.003906 53.320312 C 160.628906 52.953125 160.332031 52.511719 160.132812 52.027344 C 159.714844 51.035156 159.714844 49.914062 160.132812 48.921875 C 160.332031 48.433594 160.628906 47.992188 161.003906 47.621094 C 161.371094 47.253906 161.808594 46.957031 162.289062 46.753906 C 163.277344 46.335938 164.394531 46.335938 165.382812 46.753906 C 165.863281 46.960938 166.304688 47.253906 166.679688 47.621094 C 167.046875 47.988281 167.339844 48.425781 167.542969 48.90625 C 167.757812 49.394531 167.867188 49.917969 167.871094 50.449219 C 167.875 50.59375 167.820312 50.730469 167.71875 50.832031 C 167.617188 50.929688 167.480469 50.984375 167.335938 50.976562 L 161.035156 50.976562 C 161.078125 51.316406 161.179688 51.644531 161.34375 51.941406 C 161.5 52.242188 161.710938 52.511719 161.964844 52.734375 C 162.222656 52.957031 162.515625 53.136719 162.832031 53.257812 C 163.152344 53.386719 163.496094 53.449219 163.84375 53.449219 C 164.113281 53.453125 164.382812 53.425781 164.644531 53.359375 C 164.875 53.289062 165.097656 53.191406 165.304688 53.070312 C 165.40625 53.007812 165.523438 52.972656 165.644531 52.96875 C 165.789062 52.96875 165.925781 53.035156 166.019531 53.148438 C 166.121094 53.257812 166.175781 53.398438 166.175781 53.550781 C 166.183594 53.734375 166.078125 53.910156 165.914062 53.992188 C 165.632812 54.160156 165.332031 54.289062 165.015625 54.375 C 164.632812 54.464844 164.238281 54.507812 163.84375 54.503906 C 163.308594 54.507812 162.777344 54.398438 162.289062 54.1875 Z M 166.75 50.054688 C 166.710938 49.703125 166.605469 49.359375 166.441406 49.046875 C 166.285156 48.734375 166.070312 48.457031 165.804688 48.230469 C 165.265625 47.753906 164.574219 47.496094 163.855469 47.496094 C 163.144531 47.496094 162.457031 47.765625 161.929688 48.25 C 161.675781 48.480469 161.464844 48.757812 161.3125 49.066406 C 161.152344 49.375 161.054688 49.710938 161.015625 50.054688 Z M 166.75 50.054688 "/>
<path style=" stroke:none;fill-rule:nonzero;fill:rgb(61.960784%,91.372549%,24.313725%);fill-opacity:1;" d="M 169.003906 54.242188 C 168.890625 54.148438 168.828125 54.003906 168.835938 53.859375 L 168.835938 50.308594 C 168.832031 49.800781 168.925781 49.292969 169.113281 48.820312 C 169.292969 48.355469 169.5625 47.933594 169.902344 47.574219 C 170.972656 46.464844 172.617188 46.132812 174.03125 46.738281 C 174.480469 46.933594 174.886719 47.214844 175.226562 47.5625 C 175.5625 47.925781 175.824219 48.34375 176 48.804688 C 176.1875 49.28125 176.277344 49.789062 176.277344 50.300781 L 176.277344 53.859375 C 176.28125 54.003906 176.230469 54.144531 176.125 54.25 C 176.023438 54.351562 175.882812 54.410156 175.738281 54.402344 C 175.59375 54.40625 175.453125 54.351562 175.347656 54.25 C 175.234375 54.152344 175.175781 54.007812 175.183594 53.859375 L 175.183594 50.34375 C 175.1875 49.976562 175.121094 49.609375 174.992188 49.261719 C 174.867188 48.933594 174.679688 48.628906 174.441406 48.371094 C 173.691406 47.597656 172.542969 47.367188 171.554688 47.789062 C 171.234375 47.929688 170.949219 48.128906 170.707031 48.378906 C 170.464844 48.632812 170.28125 48.933594 170.15625 49.261719 C 170.027344 49.609375 169.960938 49.976562 169.960938 50.34375 L 169.960938 53.882812 C 169.96875 54.027344 169.914062 54.167969 169.8125 54.273438 C 169.710938 54.375 169.570312 54.433594 169.425781 54.425781 C 169.265625 54.429688 169.109375 54.363281 169.003906 54.242188 Z M 169.003906 54.242188 "/>
<path style=" stroke:none;fill-rule:nonzero;fill:rgb(61.960784%,91.372549%,24.313725%);fill-opacity:1;" d="M 180.304688 54.207031 C 179.828125 54.015625 179.390625 53.730469 179.019531 53.371094 C 178.648438 53.011719 178.351562 52.582031 178.144531 52.105469 C 177.9375 51.617188 177.832031 51.089844 177.835938 50.554688 L 177.835938 44.625 C 177.828125 44.390625 177.964844 44.175781 178.179688 44.089844 C 178.394531 44 178.640625 44.054688 178.796875 44.230469 C 178.910156 44.332031 178.96875 44.476562 178.96875 44.625 L 178.96875 46.515625 L 182.597656 46.515625 C 182.746094 46.515625 182.886719 46.574219 182.992188 46.679688 C 183.097656 46.785156 183.15625 46.929688 183.15625 47.078125 C 183.160156 47.21875 183.101562 47.359375 182.996094 47.453125 C 182.886719 47.554688 182.746094 47.605469 182.597656 47.601562 L 178.96875 47.601562 L 178.96875 50.566406 C 178.957031 51.328125 179.265625 52.0625 179.8125 52.589844 C 180.085938 52.847656 180.402344 53.050781 180.75 53.191406 C 181.109375 53.34375 181.496094 53.417969 181.890625 53.414062 C 182.238281 53.417969 182.582031 53.359375 182.910156 53.238281 C 183.234375 53.121094 183.53125 52.941406 183.785156 52.710938 C 183.851562 52.660156 183.921875 52.613281 183.992188 52.574219 C 184.0625 52.542969 184.136719 52.527344 184.214844 52.53125 C 184.34375 52.527344 184.46875 52.582031 184.554688 52.679688 C 184.652344 52.777344 184.703125 52.910156 184.699219 53.046875 C 184.699219 53.132812 184.679688 53.21875 184.648438 53.296875 C 184.613281 53.378906 184.5625 53.453125 184.492188 53.511719 C 184.15625 53.835938 183.753906 54.089844 183.3125 54.257812 C 182.34375 54.609375 181.277344 54.589844 180.320312 54.207031 Z M 180.304688 54.207031 "/>
<path style=" stroke:none;fill-rule:nonzero;fill:rgb(61.960784%,91.372549%,24.313725%);fill-opacity:1;" d="M 187.613281 54.1875 C 186.636719 53.777344 185.863281 53.003906 185.449219 52.027344 C 185.035156 51.035156 185.035156 49.914062 185.449219 48.921875 C 185.65625 48.433594 185.949219 47.992188 186.324219 47.621094 C 186.695312 47.253906 187.132812 46.957031 187.613281 46.753906 C 188.601562 46.335938 189.714844 46.335938 190.703125 46.753906 C 191.183594 46.960938 191.625 47.253906 191.996094 47.621094 C 192.367188 47.988281 192.664062 48.425781 192.867188 48.90625 C 193.078125 49.394531 193.1875 49.917969 193.191406 50.449219 C 193.195312 50.59375 193.140625 50.730469 193.039062 50.832031 C 192.9375 50.929688 192.800781 50.984375 192.65625 50.976562 L 186.355469 50.976562 C 186.394531 51.316406 186.5 51.644531 186.664062 51.941406 C 186.824219 52.238281 187.035156 52.507812 187.285156 52.734375 C 187.542969 52.957031 187.835938 53.132812 188.152344 53.257812 C 188.472656 53.386719 188.816406 53.449219 189.164062 53.449219 C 189.433594 53.453125 189.703125 53.425781 189.964844 53.359375 C 190.195312 53.289062 190.417969 53.191406 190.625 53.070312 C 190.726562 53.007812 190.84375 52.972656 190.960938 52.96875 C 191.109375 52.96875 191.25 53.035156 191.34375 53.148438 C 191.441406 53.257812 191.496094 53.402344 191.496094 53.550781 C 191.503906 53.734375 191.398438 53.910156 191.230469 53.992188 C 190.953125 54.160156 190.652344 54.289062 190.335938 54.375 C 189.953125 54.464844 189.558594 54.507812 189.164062 54.503906 C 188.628906 54.507812 188.101562 54.398438 187.613281 54.1875 Z M 192.074219 50.054688 C 192.03125 49.703125 191.929688 49.359375 191.765625 49.046875 C 191.605469 48.734375 191.390625 48.460938 191.125 48.230469 C 190.585938 47.753906 189.894531 47.496094 189.175781 47.496094 C 188.816406 47.496094 188.457031 47.5625 188.121094 47.695312 C 187.796875 47.824219 187.496094 48.011719 187.238281 48.25 C 186.984375 48.480469 186.773438 48.757812 186.621094 49.066406 C 186.460938 49.375 186.359375 49.710938 186.324219 50.054688 Z M 192.074219 50.054688 "/>
<path style=" stroke:none;fill-rule:nonzero;fill:rgb(77.647059%,92.156863%,54.509804%);fill-opacity:1;" d="M 36.121094 20 C 36.121094 25.125 31.976562 29.28125 26.863281 29.28125 C 21.753906 29.28125 17.609375 25.125 17.609375 20 C 17.609375 14.875 21.753906 10.71875 26.863281 10.71875 C 31.976562 10.71875 36.121094 14.875 36.121094 20 Z M 36.121094 20 "/>
<path style=" stroke:none;fill-rule:nonzero;fill:rgb(77.647059%,92.156863%,54.509804%);fill-opacity:1;" d="M 52.738281 28.390625 C 52.738281 28.390625 57.300781 23.199219 56.945312 18.113281 C 56.945312 18.113281 48.929688 26.394531 45.699219 28.390625 C 45.699219 28.390625 41.367188 31.765625 37.035156 33.410156 C 37.035156 33.410156 38.328125 35.898438 45.601562 32.234375 C 45.59375 32.234375 50.585938 30.628906 52.738281 28.390625 Z M 52.738281 28.390625 "/>
<path style=" stroke:none;fill-rule:nonzero;fill:rgb(56.078431%,87.45098%,12.156863%);fill-opacity:1;" d="M 57.46875 31.324219 C 57.46875 31.324219 63.886719 26.082031 64.347656 20 C 64.347656 20 56.214844 26.578125 52.316406 28.644531 C 52.316406 28.644531 45.835938 32.632812 38.625 33.855469 C 38.585938 33.855469 44.859375 36.75 57.46875 31.324219 Z M 57.46875 31.324219 "/>
<path style=" stroke:none;fill-rule:nonzero;fill:rgb(77.647059%,92.156863%,54.509804%);fill-opacity:1;" d="M 8.089844 20.621094 C 8.089844 20.621094 4.054688 10.328125 3.757812 6.664062 C 3.757812 6.664062 2.359375 14.542969 1.988281 19.183594 C 1.570312 22.386719 1.339844 25.609375 1.292969 28.835938 C 1.292969 28.835938 1.292969 38.9375 2.148438 42.800781 C 2.148438 42.800781 3.589844 53.085938 6.03125 58.03125 C 6.03125 58.03125 9.539062 66.183594 14.066406 71.039062 C 14.066406 71.039062 18.636719 76.054688 22.84375 78.761719 C 22.84375 78.761719 31.027344 84.359375 40.300781 85.179688 C 40.300781 85.179688 24.265625 76.683594 20.433594 71.628906 C 20.433594 71.628906 6.957031 48.582031 7.949219 39.90625 Z M 8.089844 20.621094 "/>
<path style=" stroke:none;fill-rule:nonzero;fill:rgb(56.078431%,87.45098%,12.156863%);fill-opacity:1;" d="M 15.933594 18.113281 C 15.933594 18.113281 13.9375 14.113281 12.710938 2.804688 C 12.710938 2.804688 6.859375 17.6875 6.535156 37.003906 C 6.535156 37.003906 6.996094 51.964844 11.234375 60.261719 C 11.234375 60.261719 14.839844 68.800781 21.542969 74.882812 C 21.542969 74.882812 31.015625 83.167969 41.710938 85.554688 C 41.710938 85.554688 19.980469 69.4375 19.980469 64.246094 C 19.980469 64.246094 14.800781 47.953125 15.515625 40.914062 Z M 15.933594 18.113281 "/>
<path style=" stroke:none;fill-rule:nonzero;fill:rgb(56.078431%,87.45098%,12.156863%);fill-opacity:1;" d="M 44.351562 18.117188 C 44.351562 23.242188 40.207031 27.398438 35.097656 27.398438 C 29.984375 27.398438 25.839844 23.242188 25.839844 18.117188 C 25.839844 12.992188 29.984375 8.835938 35.097656 8.835938 C 40.207031 8.835938 44.351562 12.992188 44.351562 18.117188 Z M 44.351562 18.117188 "/>
<path style=" stroke:none;fill-rule:nonzero;fill:rgb(35.686275%,59.607843%,6.27451%);fill-opacity:1;" d="M 52.277344 18.117188 C 52.277344 23.242188 48.132812 27.398438 43.019531 27.398438 C 37.90625 27.398438 33.761719 23.242188 33.761719 18.117188 C 33.761719 12.992188 37.90625 8.835938 43.019531 8.835938 C 48.132812 8.835938 52.277344 12.992188 52.277344 18.117188 Z M 52.277344 18.117188 "/>
<path style=" stroke:none;fill-rule:nonzero;fill:url(#linear0);" d="M 41.710938 85.554688 C 41.710938 85.554688 33.882812 78.9375 34.792969 63.679688 C 34.792969 63.679688 35.757812 50.941406 44.175781 45.039062 C 44.175781 45.039062 48.988281 41.292969 49.558594 41.082031 C 49.558594 41.082031 55.8125 37.5625 57.511719 37.058594 C 60.300781 36.03125 62.902344 34.550781 65.214844 32.679688 C 66.21875 31.894531 67.167969 31.046875 68.066406 30.144531 C 68.066406 30.144531 70.269531 27.769531 70.75 26.355469 C 70.75 26.355469 71.519531 24.277344 71.761719 23.371094 C 71.761719 23.371094 69.121094 25.554688 67.867188 26.101562 L 63.054688 28.761719 L 57.6875 31.230469 C 53.949219 32.699219 50.042969 33.695312 46.0625 34.191406 C 41.765625 34.847656 37.375 34.027344 33.605469 31.863281 C 33.605469 31.863281 28.851562 28.589844 27.394531 25.390625 C 27.394531 25.390625 25.019531 20.945312 24.382812 17.246094 C 23.632812 14.222656 23.148438 11.140625 22.9375 8.035156 L 22.9375 0.046875 C 22.9375 0.046875 20.84375 4.175781 20.242188 5.949219 C 20.242188 5.949219 17.082031 14.382812 16.695312 15.554688 C 16.695312 15.554688 13.714844 25.511719 13.675781 26.96875 C 13.675781 26.96875 12.328125 35.933594 12.1875 39.59375 C 12.1875 39.59375 11.976562 46.25 12.507812 49.128906 C 12.507812 49.128906 13.949219 57.273438 15.703125 61.433594 C 17.109375 64.8125 18.984375 67.972656 21.273438 70.828125 C 23.019531 73.1875 24.988281 75.378906 27.144531 77.371094 C 27.144531 77.371094 31.648438 80.710938 34.734375 82.3125 Z M 41.710938 85.554688 "/>
<path style=" stroke:none;fill-rule:nonzero;fill:rgb(55.294118%,87.45098%,11.764706%);fill-opacity:1;" d="M 0.332031 35.652344 C 0.332031 35.652344 -1.300781 51.941406 2.671875 60.191406 C 2.671875 60.191406 6.714844 73.28125 15.726562 81.605469 C 15.726562 81.605469 29.097656 97.289062 54.535156 97.929688 C 54.535156 97.929688 72.824219 99.101562 90.078125 84.375 C 90.078125 84.375 65.917969 103.046875 35.683594 89.925781 C 35.683594 89.925781 24.828125 86.296875 13.761719 74.132812 C 13.761719 74.132812 12.585938 74.132812 5.035156 60.136719 C 5.050781 60.15625 1.464844 53.503906 0.332031 35.652344 Z M 0.332031 35.652344 "/>
<path style=" stroke:none;fill-rule:nonzero;fill:rgb(55.294118%,87.45098%,11.764706%);fill-opacity:1;" d="M 93.910156 56.851562 C 93.910156 56.851562 92.101562 73.742188 74.65625 85.195312 C 74.65625 85.195312 55.449219 98.003906 33.472656 87.472656 C 33.472656 87.472656 23.433594 82.359375 18.769531 75.632812 C 18.769531 75.632812 27.101562 82.875 43.378906 85.554688 C 43.378906 85.554688 61.460938 89.898438 74.441406 81.070312 C 74.433594 81.09375 89.242188 73.066406 93.910156 56.851562 Z M 93.910156 56.851562 "/>
<path style=" stroke:none;fill-rule:nonzero;fill:url(#linear1);" d="M 71.960938 23.539062 C 71.960938 23.539062 54.875 38.527344 36.679688 33.25 C 36.679688 33.25 26.144531 31.273438 23.164062 9.507812 L 23.164062 0.335938 C 23.164062 0.335938 14.96875 15.164062 13.183594 31.382812 C 13.183594 31.382812 8.5 53.683594 21.367188 70.648438 C 21.367188 70.648438 29.242188 80.253906 41.160156 85.269531 C 41.160156 85.269531 37.652344 81.214844 35.203125 70.007812 C 35.203125 70.007812 32.3125 52.1875 47.335938 42.800781 C 47.335938 42.800781 52.445312 39.277344 57.339844 37.460938 C 57.324219 37.460938 69.136719 33.730469 71.960938 23.539062 Z M 71.960938 23.539062 "/>
<path style=" stroke:none;fill-rule:nonzero;fill:rgb(55.294118%,87.45098%,11.764706%);fill-opacity:1;" d="M 0.332031 35.652344 C 0.332031 35.652344 -0.503906 62.371094 19.96875 80.15625 C 19.96875 80.15625 34.558594 92.386719 53.355469 94.425781 C 53.355469 94.425781 76.21875 96.628906 90.078125 84.375 C 90.078125 84.375 64.4375 107.921875 31.226562 92.550781 C 31.226562 92.550781 11.042969 83.53125 3.890625 63.496094 C 3.890625 63.496094 -0.9375 55.300781 0.332031 35.652344 Z M 0.332031 35.652344 "/>
</g>
</svg>
