<?xml version="1.0" encoding="UTF-8"?>
<svg xmlns="http://www.w3.org/2000/svg" xmlns:xlink="http://www.w3.org/1999/xlink" width="270px" height="120px" viewBox="0 0 271 120" version="1.1">
<defs>
<linearGradient id="linear0" gradientUnits="userSpaceOnUse" x1="95.74" y1="331.24" x2="95.74" y2="154.08" gradientTransform="matrix(0.590272,0,0,0.590991,-5.082246,-91.001251)">
<stop offset="0" style="stop-color:rgb(56.078431%,87.45098%,12.156863%);stop-opacity:1;"/>
<stop offset="0.01" style="stop-color:rgb(55.686275%,86.666667%,12.156863%);stop-opacity:1;"/>
<stop offset="0.28" style="stop-color:rgb(46.666667%,74.117647%,9.411765%);stop-opacity:1;"/>
<stop offset="0.54" style="stop-color:rgb(40%,65.490196%,7.45098%);stop-opacity:1;"/>
<stop offset="0.79" style="stop-color:rgb(36.078431%,60%,6.27451%);stop-opacity:1;"/>
<stop offset="1" style="stop-color:rgb(34.901961%,58.039216%,5.882353%);stop-opacity:1;"/>
</linearGradient>
<linearGradient id="linear1" gradientUnits="userSpaceOnUse" x1="96.16" y1="330.65" x2="96.16" y2="154.67" gradientTransform="matrix(0.590272,0,0,0.590991,-5.082246,-91.001251)">
<stop offset="0" style="stop-color:rgb(56.078431%,87.45098%,12.156863%);stop-opacity:1;"/>
<stop offset="0.01" style="stop-color:rgb(55.686275%,86.666667%,12.156863%);stop-opacity:1;"/>
<stop offset="0.28" style="stop-color:rgb(46.666667%,74.117647%,9.411765%);stop-opacity:1;"/>
<stop offset="0.54" style="stop-color:rgb(40%,65.490196%,7.45098%);stop-opacity:1;"/>
<stop offset="0.79" style="stop-color:rgb(36.078431%,60%,6.27451%);stop-opacity:1;"/>
<stop offset="1" style="stop-color:rgb(34.901961%,58.039216%,5.882353%);stop-opacity:1;"/>
</linearGradient>
</defs>
<g id="surface1">
<path style=" stroke:none;fill-rule:nonzero;fill:rgb(57.254902%,85.882353%,13.333333%);fill-opacity:1;" d="M 99.578125 40.789062 L 103.355469 41.929688 C 103.152344 42.890625 102.753906 43.796875 102.175781 44.589844 C 101.644531 45.285156 100.945312 45.839844 100.144531 46.199219 C 99.164062 46.589844 98.113281 46.777344 97.058594 46.742188 C 95.785156 46.789062 94.519531 46.5625 93.339844 46.078125 C 92.292969 45.566406 91.421875 44.753906 90.835938 43.746094 C 90.09375 42.453125 89.730469 40.972656 89.792969 39.484375 C 89.792969 37.175781 90.40625 35.402344 91.632812 34.164062 C 92.863281 32.925781 94.597656 32.308594 96.839844 32.304688 C 98.292969 32.226562 99.738281 32.597656 100.972656 33.371094 C 102.050781 34.191406 102.835938 35.34375 103.210938 36.648438 L 99.394531 37.484375 C 99.304688 37.15625 99.164062 36.84375 98.976562 36.558594 C 98.746094 36.238281 98.441406 35.976562 98.089844 35.796875 C 96.882812 35.21875 95.433594 35.605469 94.671875 36.707031 C 94.222656 37.546875 94.015625 38.5 94.082031 39.453125 C 94.082031 41.003906 94.320312 42.058594 94.792969 42.640625 C 95.820312 43.714844 97.515625 43.789062 98.632812 42.804688 C 99.121094 42.226562 99.445312 41.53125 99.578125 40.789062 Z M 99.578125 40.789062 "/>
<path style=" stroke:none;fill-rule:nonzero;fill:rgb(57.254902%,85.882353%,13.333333%);fill-opacity:1;" d="M 104.902344 39.523438 C 104.902344 37.246094 105.539062 35.476562 106.808594 34.207031 C 108.074219 32.941406 109.84375 32.304688 112.121094 32.304688 C 114.402344 32.304688 116.253906 32.929688 117.488281 34.175781 C 118.722656 35.421875 119.371094 37.171875 119.371094 39.417969 C 119.421875 40.804688 119.140625 42.179688 118.550781 43.429688 C 118.019531 44.460938 117.199219 45.308594 116.1875 45.871094 C 114.992188 46.488281 113.65625 46.789062 112.3125 46.742188 C 110.96875 46.789062 109.636719 46.53125 108.410156 45.992188 C 107.355469 45.472656 106.480469 44.648438 105.902344 43.625 C 105.207031 42.375 104.859375 40.957031 104.902344 39.523438 Z M 109.210938 39.523438 C 109.210938 40.933594 109.476562 41.941406 109.996094 42.558594 C 110.554688 43.144531 111.328125 43.480469 112.140625 43.480469 C 112.949219 43.480469 113.726562 43.144531 114.28125 42.558594 C 114.789062 41.953125 115.042969 40.871094 115.042969 39.304688 C 115.042969 37.996094 114.777344 37.03125 114.246094 36.429688 C 113.703125 35.8125 112.910156 35.476562 112.09375 35.519531 C 111.292969 35.488281 110.523438 35.828125 110.003906 36.441406 C 109.476562 37.109375 109.210938 38.125 109.210938 39.546875 Z M 109.210938 39.523438 "/>
<path style=" stroke:none;fill-rule:nonzero;fill:rgb(57.254902%,85.882353%,13.333333%);fill-opacity:1;" d="M 121.625 32.515625 L 127.292969 32.515625 L 129.476562 41.007812 L 131.648438 32.515625 L 137.308594 32.515625 L 137.308594 46.476562 L 133.765625 46.476562 L 133.765625 35.835938 L 131.050781 46.476562 L 127.859375 46.476562 L 125.144531 35.835938 L 125.144531 46.476562 L 121.601562 46.476562 Z M 121.625 32.515625 "/>
<path style=" stroke:none;fill-rule:nonzero;fill:rgb(57.254902%,85.882353%,13.333333%);fill-opacity:1;" d="M 140.066406 32.515625 L 148.136719 32.515625 C 149.253906 32.441406 150.363281 32.796875 151.226562 33.515625 C 151.933594 34.140625 152.328125 35.046875 152.308594 35.992188 C 152.324219 36.769531 152.050781 37.527344 151.535156 38.113281 C 151.125 38.550781 150.609375 38.871094 150.035156 39.046875 C 150.890625 39.203125 151.667969 39.640625 152.25 40.289062 C 152.734375 40.921875 152.984375 41.703125 152.957031 42.503906 C 152.964844 43.1875 152.789062 43.859375 152.449219 44.453125 C 152.121094 45.023438 151.644531 45.496094 151.074219 45.824219 C 150.5625 46.078125 150.003906 46.234375 149.433594 46.285156 C 148.464844 46.410156 147.820312 46.476562 147.503906 46.476562 L 140.066406 46.476562 Z M 144.417969 37.988281 L 146.289062 37.988281 C 146.78125 38.035156 147.277344 37.914062 147.691406 37.640625 C 147.964844 37.378906 148.109375 37.011719 148.085938 36.636719 C 148.105469 36.273438 147.957031 35.925781 147.691406 35.683594 C 147.285156 35.417969 146.800781 35.296875 146.316406 35.339844 L 144.417969 35.339844 Z M 144.417969 43.472656 L 146.617188 43.472656 C 147.171875 43.527344 147.726562 43.386719 148.1875 43.078125 C 148.492188 42.8125 148.660156 42.421875 148.640625 42.019531 C 148.65625 41.632812 148.488281 41.265625 148.195312 41.019531 C 147.71875 40.726562 147.160156 40.59375 146.605469 40.648438 L 144.421875 40.648438 Z M 144.417969 43.472656 "/>
<path style=" stroke:none;fill-rule:nonzero;fill:rgb(57.254902%,85.882353%,13.333333%);fill-opacity:1;" d="M 155.199219 32.515625 L 166.746094 32.515625 L 166.746094 35.472656 L 159.515625 35.472656 L 159.515625 37.6875 L 166.222656 37.6875 L 166.222656 40.535156 L 159.515625 40.535156 L 159.515625 43.289062 L 166.953125 43.289062 L 166.953125 46.453125 L 155.199219 46.453125 Z M 155.199219 32.515625 "/>
<path style=" stroke:none;fill-rule:nonzero;fill:rgb(57.254902%,85.882353%,13.333333%);fill-opacity:1;" d="M 169.300781 32.515625 L 173.328125 32.515625 L 178.582031 40.234375 L 178.582031 32.515625 L 182.625 32.515625 L 182.625 46.476562 L 178.5625 46.476562 L 173.339844 38.792969 L 173.339844 46.476562 L 169.285156 46.476562 Z M 169.300781 32.515625 "/>
<path style=" stroke:none;fill-rule:nonzero;fill:rgb(57.254902%,85.882353%,13.333333%);fill-opacity:1;" d="M 185.492188 32.515625 L 197.039062 32.515625 L 197.039062 35.472656 L 189.8125 35.472656 L 189.8125 37.6875 L 196.519531 37.6875 L 196.519531 40.535156 L 189.8125 40.535156 L 189.8125 43.289062 L 197.25 43.289062 L 197.25 46.453125 L 185.492188 46.453125 Z M 185.492188 32.515625 "/>
<path style=" stroke:none;fill-rule:nonzero;fill:rgb(57.254902%,85.882353%,13.333333%);fill-opacity:1;" d="M 199.589844 32.515625 L 210.242188 32.515625 L 210.242188 35.511719 L 203.914062 35.511719 L 203.914062 37.953125 L 209.316406 37.953125 L 209.316406 40.789062 L 203.914062 40.789062 L 203.914062 46.492188 L 199.589844 46.492188 Z M 199.589844 32.515625 "/>
<path style=" stroke:none;fill-rule:nonzero;fill:rgb(57.254902%,85.882353%,13.333333%);fill-opacity:1;" d="M 212.726562 32.515625 L 217.042969 32.515625 L 217.042969 46.476562 L 212.726562 46.476562 Z M 212.726562 32.515625 "/>
<path style=" stroke:none;fill-rule:nonzero;fill:rgb(57.254902%,85.882353%,13.333333%);fill-opacity:1;" d="M 229.425781 40.789062 L 233.199219 41.929688 C 233 42.890625 232.597656 43.796875 232.019531 44.589844 C 231.488281 45.289062 230.789062 45.84375 229.988281 46.199219 C 229.007812 46.589844 227.960938 46.777344 226.90625 46.742188 C 225.632812 46.789062 224.367188 46.5625 223.1875 46.078125 C 222.148438 45.5625 221.285156 44.753906 220.703125 43.75 C 219.957031 42.457031 219.597656 40.980469 219.65625 39.488281 C 219.65625 37.179688 220.269531 35.40625 221.492188 34.171875 C 222.71875 32.933594 224.453125 32.3125 226.707031 32.308594 C 228.160156 32.226562 229.605469 32.601562 230.835938 33.378906 C 231.921875 34.195312 232.707031 35.347656 233.082031 36.652344 L 229.257812 37.484375 C 229.167969 37.15625 229.027344 36.84375 228.835938 36.558594 C 228.609375 36.234375 228.308594 35.972656 227.957031 35.796875 C 227.589844 35.613281 227.1875 35.523438 226.777344 35.53125 C 225.871094 35.492188 225.015625 35.945312 224.535156 36.710938 C 224.078125 37.550781 223.875 38.507812 223.945312 39.460938 C 223.945312 41.007812 224.179688 42.066406 224.644531 42.644531 C 225.679688 43.71875 227.371094 43.792969 228.496094 42.8125 C 228.976562 42.230469 229.296875 41.53125 229.425781 40.789062 Z M 229.425781 40.789062 "/>
<path style=" stroke:none;fill-rule:nonzero;fill:rgb(57.254902%,85.882353%,13.333333%);fill-opacity:1;" d="M 235.464844 32.515625 L 239.78125 32.515625 L 239.78125 46.476562 L 235.464844 46.476562 Z M 235.464844 32.515625 "/>
<path style=" stroke:none;fill-rule:nonzero;fill:rgb(57.254902%,85.882353%,13.333333%);fill-opacity:1;" d="M 242.332031 39.523438 C 242.332031 37.246094 242.964844 35.476562 244.230469 34.207031 C 245.5 32.9375 247.269531 32.304688 249.542969 32.304688 C 251.863281 32.304688 253.648438 32.925781 254.910156 34.175781 C 256.167969 35.425781 256.796875 37.171875 256.792969 39.417969 C 256.84375 40.804688 256.5625 42.179688 255.964844 43.429688 C 255.433594 44.460938 254.613281 45.308594 253.605469 45.871094 C 252.40625 46.488281 251.070312 46.789062 249.726562 46.742188 C 248.386719 46.789062 247.050781 46.53125 245.824219 45.992188 C 244.769531 45.472656 243.894531 44.648438 243.316406 43.625 C 242.621094 42.375 242.28125 40.957031 242.332031 39.523438 Z M 246.640625 39.523438 C 246.640625 40.933594 246.902344 41.941406 247.425781 42.558594 C 247.980469 43.144531 248.757812 43.480469 249.566406 43.480469 C 250.378906 43.480469 251.152344 43.144531 251.710938 42.558594 C 252.21875 41.953125 252.472656 40.871094 252.472656 39.304688 C 252.472656 37.996094 252.207031 37.03125 251.675781 36.429688 C 251.132812 35.8125 250.339844 35.476562 249.519531 35.519531 C 248.71875 35.488281 247.949219 35.828125 247.429688 36.441406 C 246.90625 37.109375 246.640625 38.125 246.640625 39.546875 Z M 246.640625 39.523438 "/>
<path style=" stroke:none;fill-rule:nonzero;fill:rgb(57.254902%,85.882353%,13.333333%);fill-opacity:1;" d="M 258.351562 41.878906 L 262.445312 41.625 C 262.492188 42.171875 262.679688 42.695312 262.988281 43.148438 C 263.453125 43.71875 264.160156 44.03125 264.890625 43.992188 C 265.402344 44.027344 265.90625 43.875 266.3125 43.5625 C 266.621094 43.324219 266.800781 42.960938 266.800781 42.570312 C 266.800781 42.183594 266.621094 41.816406 266.3125 41.582031 C 265.644531 41.15625 264.890625 40.878906 264.105469 40.773438 C 262.214844 40.347656 260.871094 39.785156 260.066406 39.074219 C 259.273438 38.414062 258.824219 37.421875 258.847656 36.386719 C 258.847656 35.660156 259.066406 34.949219 259.472656 34.347656 C 259.933594 33.671875 260.585938 33.152344 261.34375 32.847656 C 262.4375 32.4375 263.605469 32.25 264.773438 32.296875 C 266.554688 32.296875 267.914062 32.628906 268.851562 33.296875 C 269.839844 34.058594 270.445312 35.210938 270.515625 36.457031 L 266.453125 36.699219 C 266.429688 36.175781 266.191406 35.683594 265.789062 35.34375 C 265.390625 35 264.871094 34.839844 264.347656 34.898438 C 263.945312 34.867188 263.542969 34.980469 263.214844 35.214844 C 262.972656 35.402344 262.832031 35.6875 262.832031 35.992188 C 262.839844 36.226562 262.957031 36.445312 263.148438 36.582031 C 263.589844 36.855469 264.082031 37.03125 264.59375 37.097656 C 265.988281 37.347656 267.34375 37.761719 268.640625 38.332031 C 269.363281 38.667969 269.980469 39.203125 270.410156 39.878906 C 270.796875 40.5 271 41.214844 271 41.941406 C 271.003906 42.824219 270.746094 43.6875 270.257812 44.417969 C 269.75 45.183594 269.027344 45.78125 268.183594 46.136719 C 267.117188 46.5625 265.972656 46.765625 264.824219 46.730469 C 262.464844 46.730469 260.820312 46.273438 259.898438 45.359375 C 258.976562 44.421875 258.425781 43.1875 258.351562 41.878906 Z M 258.351562 41.878906 "/>
<path style=" stroke:none;fill-rule:nonzero;fill:rgb(61.960784%,91.372549%,24.313725%);fill-opacity:1;" d="M 98.929688 66.320312 L 94.082031 54.242188 C 94.046875 54.160156 94.027344 54.070312 94.023438 53.980469 C 94.023438 53.804688 94.097656 53.640625 94.226562 53.519531 C 94.351562 53.386719 94.527344 53.308594 94.710938 53.3125 C 94.839844 53.320312 94.96875 53.359375 95.082031 53.429688 C 95.195312 53.5 95.28125 53.601562 95.328125 53.726562 L 99.53125 64.292969 L 103.742188 53.726562 C 103.785156 53.597656 103.871094 53.492188 103.988281 53.417969 C 104.09375 53.347656 104.21875 53.3125 104.347656 53.3125 C 104.53125 53.308594 104.707031 53.378906 104.832031 53.515625 C 105.023438 53.703125 105.074219 53.996094 104.960938 54.242188 L 100.203125 66.203125 C 100.152344 66.339844 100.070312 66.464844 99.96875 66.570312 C 99.875 66.652344 99.753906 66.707031 99.625 66.714844 L 99.453125 66.714844 C 99.222656 66.683594 99.023438 66.535156 98.929688 66.320312 Z M 98.929688 66.320312 "/>
<path style=" stroke:none;fill-rule:nonzero;fill:rgb(61.960784%,91.372549%,24.313725%);fill-opacity:1;" d="M 106.691406 55.257812 C 106.53125 55.101562 106.445312 54.886719 106.457031 54.667969 C 106.445312 54.445312 106.53125 54.230469 106.691406 54.074219 C 106.847656 53.917969 107.0625 53.832031 107.28125 53.84375 C 107.503906 53.835938 107.714844 53.921875 107.871094 54.074219 C 108.03125 54.230469 108.117188 54.445312 108.109375 54.667969 C 108.109375 54.882812 108.023438 55.089844 107.871094 55.242188 C 107.714844 55.394531 107.507812 55.476562 107.292969 55.476562 C 107.070312 55.496094 106.851562 55.414062 106.691406 55.257812 Z M 106.78125 66.484375 C 106.648438 66.363281 106.574219 66.1875 106.578125 66.007812 L 106.578125 57.554688 C 106.574219 57.371094 106.648438 57.191406 106.78125 57.066406 C 106.910156 56.9375 107.082031 56.863281 107.265625 56.863281 C 107.445312 56.859375 107.617188 56.933594 107.742188 57.066406 C 107.867188 57.199219 107.9375 57.375 107.929688 57.554688 L 107.929688 65.988281 C 107.933594 66.167969 107.863281 66.339844 107.738281 66.464844 C 107.613281 66.59375 107.441406 66.664062 107.265625 66.664062 C 107.082031 66.667969 106.910156 66.597656 106.78125 66.46875 Z M 106.78125 66.484375 "/>
<path style=" stroke:none;fill-rule:nonzero;fill:rgb(61.960784%,91.372549%,24.313725%);fill-opacity:1;" d="M 113.207031 66.570312 C 113.101562 66.492188 113.011719 66.390625 112.953125 66.273438 L 109.464844 57.804688 C 109.417969 57.714844 109.394531 57.617188 109.394531 57.515625 C 109.390625 57.339844 109.460938 57.171875 109.585938 57.046875 C 109.808594 56.820312 110.164062 56.78125 110.433594 56.953125 C 110.546875 57.03125 110.632812 57.136719 110.683594 57.261719 L 113.5625 64.429688 L 116.449219 57.289062 C 116.496094 57.164062 116.582031 57.058594 116.691406 56.984375 C 116.796875 56.914062 116.921875 56.875 117.050781 56.875 C 117.230469 56.875 117.402344 56.941406 117.53125 57.066406 C 117.660156 57.191406 117.734375 57.363281 117.734375 57.542969 C 117.734375 57.644531 117.714844 57.742188 117.675781 57.835938 L 114.175781 66.304688 C 114.105469 66.417969 114.015625 66.523438 113.917969 66.617188 C 113.808594 66.6875 113.679688 66.722656 113.550781 66.714844 C 113.421875 66.707031 113.304688 66.652344 113.207031 66.570312 Z M 113.207031 66.570312 "/>
<path style=" stroke:none;fill-rule:nonzero;fill:rgb(61.960784%,91.372549%,24.313725%);fill-opacity:1;" d="M 121.078125 66.351562 C 119.886719 65.847656 118.9375 64.902344 118.433594 63.707031 C 117.921875 62.492188 117.921875 61.121094 118.433594 59.902344 C 118.683594 59.308594 119.042969 58.769531 119.5 58.3125 C 119.953125 57.859375 120.488281 57.5 121.078125 57.25 C 122.289062 56.738281 123.660156 56.738281 124.871094 57.25 C 125.464844 57.5 126 57.863281 126.460938 58.3125 C 127.378906 59.230469 127.90625 60.476562 127.925781 61.777344 C 127.929688 61.949219 127.859375 62.117188 127.738281 62.242188 C 127.613281 62.363281 127.441406 62.429688 127.269531 62.421875 L 119.542969 62.421875 C 119.589844 62.835938 119.71875 63.234375 119.917969 63.601562 C 120.113281 63.96875 120.371094 64.296875 120.679688 64.570312 C 120.996094 64.84375 121.355469 65.0625 121.742188 65.214844 C 122.140625 65.371094 122.558594 65.449219 122.984375 65.445312 C 123.316406 65.453125 123.648438 65.417969 123.96875 65.339844 C 124.25 65.25 124.523438 65.132812 124.777344 64.984375 C 124.902344 64.90625 125.042969 64.863281 125.191406 64.859375 C 125.371094 64.859375 125.539062 64.941406 125.652344 65.078125 C 125.777344 65.210938 125.847656 65.386719 125.847656 65.570312 C 125.851562 65.800781 125.726562 66.011719 125.519531 66.113281 C 125.179688 66.316406 124.808594 66.476562 124.421875 66.582031 C 123.953125 66.691406 123.46875 66.746094 122.984375 66.742188 C 122.328125 66.742188 121.679688 66.609375 121.078125 66.351562 Z M 126.554688 61.292969 C 126.5 60.859375 126.371094 60.441406 126.171875 60.054688 C 125.976562 59.675781 125.714844 59.335938 125.390625 59.058594 C 124.738281 58.484375 123.898438 58.164062 123.03125 58.160156 C 122.15625 58.15625 121.3125 58.484375 120.667969 59.082031 C 120.042969 59.660156 119.644531 60.445312 119.546875 61.292969 Z M 126.554688 61.292969 "/>
<path style=" stroke:none;fill-rule:nonzero;fill:rgb(61.960784%,91.372549%,24.313725%);fill-opacity:1;" d="M 134.109375 69.914062 C 133.976562 69.785156 133.898438 69.609375 133.902344 69.421875 L 133.902344 61.816406 C 133.898438 60.5 134.421875 59.234375 135.359375 58.3125 C 135.8125 57.859375 136.347656 57.5 136.9375 57.25 C 138.152344 56.738281 139.523438 56.738281 140.738281 57.25 C 141.328125 57.5 141.863281 57.863281 142.320312 58.3125 C 142.773438 58.765625 143.128906 59.304688 143.371094 59.898438 C 143.625 60.503906 143.753906 61.160156 143.75 61.816406 C 143.753906 62.46875 143.625 63.113281 143.371094 63.714844 C 143.128906 64.304688 142.769531 64.839844 142.320312 65.292969 C 141.867188 65.742188 141.328125 66.101562 140.738281 66.351562 C 140.136719 66.609375 139.492188 66.738281 138.839844 66.734375 C 138.15625 66.738281 137.484375 66.597656 136.859375 66.328125 C 136.25 66.058594 135.703125 65.667969 135.25 65.179688 L 135.25 69.421875 C 135.253906 69.605469 135.1875 69.785156 135.066406 69.917969 C 134.949219 70.054688 134.773438 70.128906 134.59375 70.121094 C 134.410156 70.125 134.234375 70.046875 134.109375 69.914062 Z M 140.238281 65.113281 C 140.667969 64.929688 141.054688 64.664062 141.382812 64.328125 C 141.710938 64.003906 141.972656 63.613281 142.148438 63.183594 C 142.328125 62.75 142.421875 62.285156 142.421875 61.816406 C 142.421875 61.34375 142.328125 60.875 142.148438 60.433594 C 141.691406 59.324219 140.710938 58.515625 139.535156 58.277344 C 138.359375 58.042969 137.144531 58.40625 136.292969 59.253906 C 135.964844 59.59375 135.703125 59.996094 135.527344 60.433594 C 135.339844 60.871094 135.246094 61.34375 135.25 61.816406 C 135.246094 62.285156 135.339844 62.75 135.527344 63.183594 C 135.703125 63.609375 135.964844 64 136.292969 64.328125 C 136.628906 64.667969 137.03125 64.9375 137.472656 65.113281 C 138.367188 65.484375 139.371094 65.484375 140.265625 65.113281 Z M 140.238281 65.113281 "/>
<path style=" stroke:none;fill-rule:nonzero;fill:rgb(61.960784%,91.372549%,24.313725%);fill-opacity:1;" d="M 149.15625 66.445312 C 149.027344 66.566406 148.859375 66.628906 148.683594 66.621094 C 148.238281 66.628906 147.792969 66.546875 147.378906 66.378906 C 146.984375 66.222656 146.628906 65.984375 146.328125 65.683594 C 146.023438 65.375 145.789062 65.007812 145.636719 64.601562 C 145.46875 64.152344 145.386719 63.679688 145.394531 63.199219 L 145.394531 54.058594 C 145.390625 53.878906 145.457031 53.703125 145.578125 53.574219 C 145.699219 53.4375 145.871094 53.363281 146.050781 53.371094 C 146.429688 53.371094 146.734375 53.679688 146.734375 54.058594 L 146.734375 63.183594 C 146.703125 63.742188 146.882812 64.292969 147.238281 64.726562 C 147.597656 65.113281 148.109375 65.332031 148.640625 65.316406 L 148.691406 65.316406 C 148.867188 65.3125 149.039062 65.382812 149.164062 65.507812 C 149.289062 65.632812 149.359375 65.804688 149.355469 65.984375 C 149.355469 66.160156 149.28125 66.324219 149.15625 66.445312 Z M 149.15625 66.445312 "/>
<path style=" stroke:none;fill-rule:nonzero;fill:rgb(61.960784%,91.372549%,24.313725%);fill-opacity:1;" d="M 153.027344 66.351562 C 152.4375 66.101562 151.902344 65.742188 151.445312 65.292969 C 150.992188 64.839844 150.628906 64.300781 150.378906 63.707031 C 149.867188 62.492188 149.867188 61.121094 150.378906 59.902344 C 150.628906 59.308594 150.988281 58.769531 151.445312 58.3125 C 151.902344 57.863281 152.4375 57.5 153.027344 57.25 C 154.238281 56.738281 155.605469 56.738281 156.816406 57.25 C 157.410156 57.503906 157.949219 57.863281 158.410156 58.3125 C 158.863281 58.765625 159.222656 59.296875 159.472656 59.882812 C 159.730469 60.480469 159.867188 61.125 159.871094 61.777344 C 159.886719 61.953125 159.824219 62.128906 159.695312 62.253906 C 159.566406 62.378906 159.390625 62.441406 159.214844 62.421875 L 151.488281 62.421875 C 151.539062 62.835938 151.667969 63.234375 151.867188 63.601562 C 152.0625 63.964844 152.320312 64.292969 152.625 64.570312 C 152.945312 64.84375 153.304688 65.0625 153.695312 65.214844 C 154.089844 65.371094 154.507812 65.449219 154.929688 65.445312 C 155.261719 65.453125 155.59375 65.417969 155.914062 65.339844 C 156.195312 65.253906 156.46875 65.132812 156.722656 64.984375 C 156.847656 64.90625 156.988281 64.863281 157.136719 64.859375 C 157.316406 64.859375 157.488281 64.9375 157.601562 65.078125 C 157.726562 65.214844 157.792969 65.390625 157.792969 65.570312 C 157.800781 65.796875 157.675781 66.007812 157.472656 66.113281 C 157.125 66.316406 156.753906 66.472656 156.367188 66.582031 C 155.898438 66.691406 155.414062 66.746094 154.929688 66.742188 C 154.273438 66.742188 153.628906 66.609375 153.027344 66.351562 Z M 158.5 61.292969 C 158.449219 60.859375 158.320312 60.441406 158.121094 60.054688 C 157.925781 59.675781 157.660156 59.339844 157.335938 59.058594 C 157.015625 58.773438 156.640625 58.546875 156.238281 58.394531 C 155.828125 58.238281 155.386719 58.160156 154.945312 58.160156 C 154.503906 58.160156 154.066406 58.242188 153.652344 58.402344 C 153.253906 58.5625 152.886719 58.792969 152.566406 59.082031 C 151.941406 59.660156 151.542969 60.445312 151.445312 61.292969 Z M 158.5 61.292969 "/>
<path style=" stroke:none;fill-rule:nonzero;fill:rgb(61.960784%,91.372549%,24.313725%);fill-opacity:1;" d="M 161.257812 66.421875 C 161.117188 66.304688 161.042969 66.128906 161.050781 65.949219 L 161.050781 61.605469 C 161.050781 60.980469 161.164062 60.359375 161.390625 59.777344 C 161.613281 59.210938 161.941406 58.695312 162.359375 58.253906 C 163.214844 57.367188 164.394531 56.867188 165.625 56.867188 C 166.855469 56.867188 168.035156 57.367188 168.890625 58.253906 C 169.300781 58.695312 169.625 59.210938 169.84375 59.773438 C 170.070312 60.355469 170.183594 60.976562 170.179688 61.605469 L 170.179688 65.960938 C 170.1875 66.140625 170.121094 66.3125 169.992188 66.441406 C 169.867188 66.566406 169.691406 66.632812 169.515625 66.628906 C 169.335938 66.632812 169.164062 66.5625 169.035156 66.4375 C 168.90625 66.3125 168.835938 66.140625 168.839844 65.960938 L 168.839844 61.65625 C 168.84375 61.207031 168.761719 60.757812 168.605469 60.332031 C 168.453125 59.933594 168.230469 59.5625 167.945312 59.242188 C 167.652344 58.929688 167.296875 58.679688 166.90625 58.507812 C 166.503906 58.328125 166.070312 58.238281 165.628906 58.242188 C 164.757812 58.234375 163.921875 58.589844 163.324219 59.222656 C 163.027344 59.535156 162.796875 59.902344 162.644531 60.304688 C 162.484375 60.726562 162.402344 61.175781 162.402344 61.628906 L 162.402344 65.960938 C 162.410156 66.136719 162.34375 66.308594 162.222656 66.4375 C 162.097656 66.566406 161.925781 66.632812 161.746094 66.628906 C 161.5625 66.625 161.386719 66.550781 161.257812 66.421875 Z M 161.257812 66.421875 "/>
<path style=" stroke:none;fill-rule:nonzero;fill:rgb(61.960784%,91.372549%,24.313725%);fill-opacity:1;" d="M 174.667969 66.355469 C 174.082031 66.105469 173.554688 65.746094 173.109375 65.292969 C 172.65625 64.84375 172.300781 64.304688 172.058594 63.714844 C 171.808594 63.113281 171.683594 62.46875 171.6875 61.816406 C 171.683594 61.160156 171.808594 60.511719 172.058594 59.902344 C 172.300781 59.308594 172.65625 58.765625 173.109375 58.3125 C 173.550781 57.855469 174.082031 57.496094 174.667969 57.25 C 176.5 56.472656 178.617188 56.894531 180.015625 58.3125 C 180.460938 58.769531 180.816406 59.304688 181.054688 59.898438 C 181.300781 60.507812 181.429688 61.160156 181.425781 61.816406 L 181.425781 65.953125 C 181.429688 66.140625 181.359375 66.320312 181.226562 66.449219 C 181.097656 66.585938 180.914062 66.65625 180.730469 66.652344 C 180.550781 66.660156 180.378906 66.589844 180.257812 66.457031 C 180.136719 66.320312 180.070312 66.140625 180.074219 65.953125 L 180.074219 65.226562 C 179.625 65.699219 179.089844 66.074219 178.492188 66.332031 C 177.269531 66.84375 175.894531 66.84375 174.671875 66.332031 Z M 177.957031 65.113281 C 178.378906 64.933594 178.761719 64.667969 179.078125 64.328125 C 179.394531 64 179.648438 63.609375 179.816406 63.183594 C 179.992188 62.75 180.078125 62.285156 180.074219 61.816406 C 180.078125 61.34375 179.988281 60.871094 179.816406 60.429688 C 179.476562 59.5625 178.804688 58.871094 177.949219 58.507812 C 177.507812 58.320312 177.035156 58.226562 176.554688 58.230469 C 175.613281 58.226562 174.710938 58.605469 174.054688 59.28125 C 173.726562 59.621094 173.472656 60.023438 173.304688 60.464844 C 173.125 60.902344 173.03125 61.371094 173.03125 61.847656 C 173.03125 62.316406 173.125 62.78125 173.304688 63.210938 C 173.65625 64.074219 174.328125 64.769531 175.179688 65.144531 C 175.617188 65.332031 176.082031 65.425781 176.554688 65.421875 C 177.039062 65.414062 177.515625 65.3125 177.957031 65.113281 Z M 177.957031 65.113281 "/>
<path style=" stroke:none;fill-rule:nonzero;fill:rgb(61.960784%,91.372549%,24.313725%);fill-opacity:1;" d="M 183.539062 66.421875 C 183.410156 66.292969 183.339844 66.117188 183.34375 65.9375 L 183.34375 59.996094 C 183.34375 59.578125 183.425781 59.160156 183.585938 58.773438 C 183.75 58.394531 183.980469 58.050781 184.269531 57.757812 C 184.5625 57.464844 184.90625 57.230469 185.285156 57.070312 C 186.125 56.722656 187.074219 56.75 187.890625 57.15625 C 188.320312 57.371094 188.699219 57.675781 189.003906 58.046875 C 189.300781 57.671875 189.671875 57.367188 190.097656 57.15625 C 190.527344 56.9375 191.003906 56.828125 191.484375 56.828125 C 192.328125 56.832031 193.136719 57.160156 193.746094 57.746094 C 194.042969 58.039062 194.285156 58.386719 194.453125 58.769531 C 194.621094 59.152344 194.703125 59.570312 194.703125 59.992188 L 194.703125 65.9375 C 194.707031 66.121094 194.636719 66.296875 194.5 66.421875 C 194.304688 66.609375 194.015625 66.664062 193.765625 66.558594 C 193.515625 66.453125 193.351562 66.207031 193.351562 65.9375 L 193.351562 60.097656 C 193.347656 59.855469 193.300781 59.613281 193.214844 59.386719 C 193.117188 59.167969 192.984375 58.96875 192.820312 58.796875 C 192.472656 58.441406 191.992188 58.242188 191.496094 58.246094 C 191.265625 58.246094 191.035156 58.289062 190.824219 58.378906 C 190.605469 58.464844 190.40625 58.589844 190.234375 58.75 C 189.886719 59.066406 189.675781 59.503906 189.644531 59.972656 C 189.640625 59.988281 189.640625 60.003906 189.644531 60.019531 L 189.644531 65.929688 C 189.644531 66.113281 189.570312 66.285156 189.441406 66.414062 C 189.316406 66.542969 189.144531 66.613281 188.964844 66.609375 C 188.785156 66.613281 188.613281 66.542969 188.492188 66.414062 C 188.367188 66.285156 188.296875 66.109375 188.304688 65.929688 L 188.304688 60.117188 C 188.304688 59.871094 188.253906 59.625 188.160156 59.398438 C 188.070312 59.183594 187.941406 58.980469 187.777344 58.808594 C 187.609375 58.632812 187.410156 58.492188 187.1875 58.394531 C 186.960938 58.296875 186.71875 58.246094 186.472656 58.246094 C 186.242188 58.246094 186.015625 58.289062 185.804688 58.378906 C 185.585938 58.460938 185.386719 58.585938 185.214844 58.746094 C 185.050781 58.902344 184.914062 59.085938 184.8125 59.289062 C 184.714844 59.488281 184.652344 59.707031 184.632812 59.933594 C 184.625 59.949219 184.625 59.96875 184.632812 59.984375 L 184.632812 65.953125 C 184.628906 66.136719 184.554688 66.3125 184.425781 66.4375 C 184.300781 66.566406 184.132812 66.636719 183.957031 66.632812 C 183.796875 66.617188 183.648438 66.539062 183.539062 66.421875 Z M 183.539062 66.421875 "/>
<path style=" stroke:none;fill-rule:nonzero;fill:rgb(61.960784%,91.372549%,24.313725%);fill-opacity:1;" d="M 199.003906 66.351562 C 198.414062 66.105469 197.878906 65.746094 197.429688 65.292969 C 196.96875 64.839844 196.609375 64.300781 196.359375 63.707031 C 195.847656 62.492188 195.847656 61.121094 196.359375 59.902344 C 196.605469 59.308594 196.96875 58.765625 197.429688 58.3125 C 197.882812 57.859375 198.417969 57.5 199.003906 57.25 C 200.21875 56.738281 201.585938 56.738281 202.800781 57.25 C 203.390625 57.5 203.929688 57.863281 204.386719 58.3125 C 204.839844 58.761719 205.199219 59.296875 205.449219 59.882812 C 205.710938 60.480469 205.847656 61.125 205.851562 61.777344 C 205.855469 61.949219 205.789062 62.117188 205.664062 62.242188 C 205.539062 62.363281 205.371094 62.429688 205.195312 62.421875 L 197.46875 62.421875 C 197.519531 62.835938 197.648438 63.234375 197.847656 63.601562 C 198.039062 63.96875 198.296875 64.296875 198.609375 64.570312 C 198.921875 64.847656 199.28125 65.0625 199.671875 65.214844 C 200.066406 65.371094 200.488281 65.449219 200.910156 65.445312 C 201.242188 65.453125 201.574219 65.417969 201.898438 65.339844 C 202.179688 65.25 202.449219 65.132812 202.707031 64.984375 C 202.828125 64.90625 202.972656 64.863281 203.117188 64.859375 C 203.296875 64.859375 203.464844 64.941406 203.578125 65.078125 C 203.703125 65.210938 203.773438 65.386719 203.773438 65.570312 C 203.78125 65.800781 203.652344 66.011719 203.449219 66.113281 C 203.105469 66.316406 202.738281 66.476562 202.351562 66.582031 C 201.878906 66.691406 201.394531 66.746094 200.910156 66.742188 C 200.253906 66.742188 199.605469 66.609375 199.003906 66.351562 Z M 204.476562 61.292969 C 204.429688 60.859375 204.300781 60.441406 204.097656 60.054688 C 203.90625 59.675781 203.640625 59.335938 203.320312 59.058594 C 202.660156 58.476562 201.808594 58.15625 200.929688 58.160156 C 200.054688 58.15625 199.210938 58.484375 198.566406 59.082031 C 198.253906 59.363281 197.996094 59.703125 197.804688 60.078125 C 197.613281 60.457031 197.492188 60.867188 197.445312 61.292969 Z M 204.476562 61.292969 "/>
<path style=" stroke:none;fill-rule:nonzero;fill:rgb(61.960784%,91.372549%,24.313725%);fill-opacity:1;" d="M 207.238281 66.421875 C 207.101562 66.304688 207.023438 66.128906 207.03125 65.949219 L 207.03125 61.605469 C 207.027344 60.980469 207.144531 60.359375 207.375 59.777344 C 207.59375 59.210938 207.921875 58.695312 208.34375 58.253906 C 209.65625 56.894531 211.671875 56.488281 213.40625 57.230469 C 213.957031 57.46875 214.453125 57.8125 214.871094 58.242188 C 215.28125 58.683594 215.605469 59.199219 215.820312 59.761719 C 216.046875 60.34375 216.160156 60.964844 216.15625 61.59375 L 216.15625 65.949219 C 216.167969 66.125 216.097656 66.300781 215.972656 66.425781 C 215.847656 66.554688 215.675781 66.621094 215.496094 66.617188 C 215.320312 66.621094 215.144531 66.550781 215.019531 66.425781 C 214.882812 66.308594 214.808594 66.128906 214.816406 65.949219 L 214.816406 61.644531 C 214.820312 61.195312 214.742188 60.746094 214.582031 60.320312 C 214.429688 59.917969 214.199219 59.546875 213.910156 59.230469 C 212.988281 58.285156 211.582031 58.003906 210.367188 58.519531 C 209.976562 58.691406 209.625 58.933594 209.328125 59.242188 C 209.03125 59.550781 208.804688 59.917969 208.65625 60.320312 C 208.496094 60.746094 208.414062 61.195312 208.414062 61.644531 L 208.414062 65.976562 C 208.421875 66.15625 208.355469 66.328125 208.230469 66.457031 C 208.105469 66.582031 207.933594 66.652344 207.757812 66.644531 C 207.5625 66.648438 207.371094 66.566406 207.238281 66.421875 Z M 207.238281 66.421875 "/>
<path style=" stroke:none;fill-rule:nonzero;fill:rgb(61.960784%,91.372549%,24.313725%);fill-opacity:1;" d="M 221.097656 66.375 C 220.511719 66.140625 219.976562 65.792969 219.523438 65.351562 C 219.066406 64.910156 218.703125 64.382812 218.449219 63.804688 C 218.191406 63.203125 218.0625 62.558594 218.070312 61.90625 L 218.070312 54.644531 C 218.058594 54.355469 218.226562 54.09375 218.492188 53.988281 C 218.753906 53.878906 219.058594 53.945312 219.25 54.15625 C 219.386719 54.28125 219.460938 54.460938 219.457031 54.644531 L 219.457031 56.960938 L 223.90625 56.960938 C 224.089844 56.957031 224.265625 57.03125 224.390625 57.160156 C 224.519531 57.289062 224.59375 57.464844 224.59375 57.644531 C 224.597656 57.820312 224.527344 57.988281 224.398438 58.105469 C 224.265625 58.230469 224.089844 58.292969 223.90625 58.289062 L 219.457031 58.289062 L 219.457031 61.917969 C 219.449219 62.851562 219.824219 63.746094 220.496094 64.394531 C 220.828125 64.710938 221.214844 64.960938 221.640625 65.132812 C 222.085938 65.316406 222.558594 65.410156 223.039062 65.40625 C 223.464844 65.410156 223.890625 65.335938 224.292969 65.191406 C 224.6875 65.046875 225.054688 64.824219 225.367188 64.542969 C 225.445312 64.480469 225.53125 64.425781 225.621094 64.375 C 225.707031 64.339844 225.796875 64.320312 225.890625 64.324219 C 226.050781 64.320312 226.203125 64.386719 226.308594 64.507812 C 226.425781 64.625 226.488281 64.789062 226.488281 64.957031 C 226.484375 65.0625 226.464844 65.164062 226.421875 65.261719 C 226.382812 65.363281 226.316406 65.453125 226.234375 65.523438 C 225.816406 65.921875 225.328125 66.234375 224.789062 66.4375 C 223.597656 66.871094 222.289062 66.847656 221.117188 66.375 Z M 221.097656 66.375 "/>
<path style=" stroke:none;fill-rule:nonzero;fill:rgb(61.960784%,91.372549%,24.313725%);fill-opacity:1;" d="M 230.058594 66.351562 C 228.863281 65.851562 227.910156 64.902344 227.410156 63.707031 C 226.898438 62.492188 226.898438 61.121094 227.410156 59.902344 C 227.65625 59.308594 228.019531 58.769531 228.476562 58.3125 C 228.933594 57.859375 229.46875 57.5 230.058594 57.25 C 231.269531 56.738281 232.636719 56.738281 233.847656 57.25 C 234.4375 57.5 234.976562 57.863281 235.4375 58.3125 C 235.890625 58.761719 236.253906 59.296875 236.503906 59.882812 C 236.757812 60.484375 236.894531 61.125 236.898438 61.777344 C 236.90625 61.949219 236.835938 62.117188 236.714844 62.242188 C 236.589844 62.363281 236.417969 62.429688 236.246094 62.421875 L 228.519531 62.421875 C 228.566406 62.835938 228.695312 63.234375 228.894531 63.601562 C 229.09375 63.964844 229.351562 64.292969 229.65625 64.570312 C 229.972656 64.84375 230.332031 65.0625 230.71875 65.214844 C 231.113281 65.371094 231.535156 65.449219 231.960938 65.445312 C 232.292969 65.453125 232.621094 65.417969 232.945312 65.339844 C 233.226562 65.253906 233.5 65.132812 233.753906 64.984375 C 233.878906 64.90625 234.019531 64.863281 234.167969 64.859375 C 234.347656 64.859375 234.519531 64.9375 234.632812 65.078125 C 234.753906 65.214844 234.824219 65.390625 234.820312 65.570312 C 234.828125 65.800781 234.703125 66.011719 234.496094 66.113281 C 234.152344 66.316406 233.785156 66.476562 233.398438 66.582031 C 232.929688 66.691406 232.445312 66.746094 231.960938 66.742188 C 231.304688 66.742188 230.660156 66.609375 230.058594 66.351562 Z M 235.53125 61.292969 C 235.480469 60.859375 235.351562 60.441406 235.152344 60.054688 C 234.957031 59.675781 234.691406 59.339844 234.367188 59.058594 C 233.707031 58.476562 232.855469 58.15625 231.976562 58.160156 C 231.535156 58.15625 231.097656 58.238281 230.683594 58.402344 C 230.285156 58.558594 229.917969 58.789062 229.597656 59.082031 C 229.285156 59.363281 229.03125 59.703125 228.84375 60.078125 C 228.648438 60.457031 228.523438 60.867188 228.476562 61.292969 Z M 235.53125 61.292969 "/>
<path style=" stroke:none;fill-rule:nonzero;fill:rgb(77.647059%,92.156863%,54.509804%);fill-opacity:1;" d="M 44.292969 24.492188 C 44.292969 30.765625 39.210938 35.855469 32.941406 35.855469 C 26.675781 35.855469 21.59375 30.765625 21.59375 24.492188 C 21.59375 18.214844 26.675781 13.125 32.941406 13.125 C 39.210938 13.125 44.292969 18.214844 44.292969 24.492188 Z M 44.292969 24.492188 "/>
<path style=" stroke:none;fill-rule:nonzero;fill:rgb(77.647059%,92.156863%,54.509804%);fill-opacity:1;" d="M 64.671875 34.761719 C 64.671875 34.761719 70.265625 28.410156 69.828125 22.179688 C 69.828125 22.179688 60 32.320312 56.039062 34.761719 C 56.039062 34.761719 50.726562 38.898438 45.414062 40.90625 C 45.414062 40.90625 46.996094 43.957031 55.917969 39.472656 C 55.910156 39.472656 62.03125 37.503906 64.671875 34.761719 Z M 64.671875 34.761719 "/>
<path style=" stroke:none;fill-rule:nonzero;fill:rgb(56.078431%,87.45098%,12.156863%);fill-opacity:1;" d="M 70.472656 38.355469 C 70.472656 38.355469 78.339844 31.9375 78.90625 24.492188 C 78.90625 24.492188 68.933594 32.546875 64.152344 35.074219 C 64.152344 35.074219 56.207031 39.957031 47.363281 41.457031 C 47.316406 41.457031 55.007812 44.996094 70.472656 38.355469 Z M 70.472656 38.355469 "/>
<path style=" stroke:none;fill-rule:nonzero;fill:rgb(77.647059%,92.156863%,54.509804%);fill-opacity:1;" d="M 9.921875 25.253906 C 9.921875 25.253906 4.96875 12.648438 4.609375 8.160156 C 4.609375 8.160156 2.890625 17.804688 2.4375 23.492188 C 1.925781 27.410156 1.640625 31.359375 1.585938 35.3125 C 1.585938 35.3125 1.585938 47.679688 2.632812 52.410156 C 2.632812 52.410156 4.402344 65.003906 7.394531 71.058594 C 7.394531 71.058594 11.699219 81.042969 17.246094 86.988281 C 17.246094 86.988281 22.855469 93.128906 28.015625 96.445312 C 28.015625 96.445312 38.050781 103.300781 49.417969 104.304688 C 49.417969 104.304688 29.753906 93.894531 25.058594 87.707031 C 25.058594 87.707031 8.53125 59.488281 9.746094 48.863281 Z M 9.921875 25.253906 "/>
<path style=" stroke:none;fill-rule:nonzero;fill:rgb(56.078431%,87.45098%,12.156863%);fill-opacity:1;" d="M 19.539062 22.179688 C 19.539062 22.179688 17.089844 17.28125 15.589844 3.433594 C 15.589844 3.433594 8.410156 21.660156 8.015625 45.3125 C 8.015625 45.3125 8.578125 63.632812 13.777344 73.789062 C 13.777344 73.789062 18.199219 84.246094 26.414062 91.691406 C 26.414062 91.691406 38.03125 101.839844 51.148438 104.757812 C 51.148438 104.757812 24.503906 85.027344 24.503906 78.667969 C 24.503906 78.667969 18.152344 58.71875 19.023438 50.097656 Z M 19.539062 22.179688 "/>
<path style=" stroke:none;fill-rule:nonzero;fill:rgb(56.078431%,87.45098%,12.156863%);fill-opacity:1;" d="M 54.386719 22.183594 C 54.386719 28.460938 49.304688 33.550781 43.035156 33.550781 C 36.769531 33.550781 31.6875 28.460938 31.6875 22.183594 C 31.6875 15.910156 36.769531 10.820312 43.035156 10.820312 C 49.304688 10.820312 54.386719 15.910156 54.386719 22.183594 Z M 54.386719 22.183594 "/>
<path style=" stroke:none;fill-rule:nonzero;fill:rgb(35.686275%,59.607843%,6.27451%);fill-opacity:1;" d="M 64.105469 22.183594 C 64.105469 28.460938 59.023438 33.550781 52.753906 33.550781 C 46.484375 33.550781 41.402344 28.460938 41.402344 22.183594 C 41.402344 15.910156 46.484375 10.820312 52.753906 10.820312 C 59.023438 10.820312 64.105469 15.910156 64.105469 22.183594 Z M 64.105469 22.183594 "/>
<path style=" stroke:none;fill-rule:nonzero;fill:url(#linear0);" d="M 51.148438 104.757812 C 51.148438 104.757812 41.550781 96.65625 42.664062 77.976562 C 42.664062 77.976562 43.84375 62.378906 54.167969 55.152344 C 54.167969 55.152344 60.070312 50.566406 60.769531 50.304688 C 60.769531 50.304688 68.441406 45.996094 70.527344 45.375 C 73.945312 44.117188 77.136719 42.308594 79.96875 40.015625 C 81.199219 39.054688 82.363281 38.019531 83.464844 36.914062 C 83.464844 36.914062 86.167969 34.003906 86.757812 32.273438 C 86.757812 32.273438 87.703125 29.726562 87.996094 28.617188 C 87.996094 28.617188 84.757812 31.292969 83.222656 31.960938 L 77.320312 35.214844 L 70.738281 38.242188 C 66.15625 40.039062 61.367188 41.257812 56.484375 41.867188 C 51.214844 42.671875 45.832031 41.667969 41.207031 39.015625 C 41.207031 39.015625 35.382812 35.011719 33.59375 31.089844 C 33.59375 31.089844 30.683594 25.648438 29.898438 21.117188 C 28.976562 17.417969 28.386719 13.644531 28.125 9.839844 L 28.125 0.0585938 C 28.125 0.0585938 25.558594 5.113281 24.820312 7.285156 C 24.820312 7.285156 20.949219 17.609375 20.46875 19.046875 C 20.46875 19.046875 16.816406 31.238281 16.769531 33.023438 C 16.769531 33.023438 15.117188 44 14.945312 48.484375 C 14.945312 48.484375 14.6875 56.632812 15.335938 60.15625 C 15.335938 60.15625 17.105469 70.132812 19.253906 75.226562 C 20.980469 79.363281 23.28125 83.234375 26.085938 86.726562 C 28.230469 89.617188 30.640625 92.300781 33.285156 94.742188 C 33.285156 94.742188 38.808594 98.832031 42.59375 100.792969 Z M 51.148438 104.757812 "/>
<path style=" stroke:none;fill-rule:nonzero;fill:rgb(55.294118%,87.45098%,11.764706%);fill-opacity:1;" d="M 0.40625 43.65625 C 0.40625 43.65625 -1.59375 63.601562 3.277344 73.703125 C 3.277344 73.703125 8.234375 89.730469 19.285156 99.925781 C 19.285156 99.925781 35.683594 119.132812 66.871094 119.910156 C 66.871094 119.910156 89.300781 121.347656 110.457031 103.316406 C 110.457031 103.316406 80.832031 126.183594 43.757812 110.113281 C 43.757812 110.113281 30.445312 105.667969 16.875 90.777344 C 16.875 90.777344 15.4375 90.777344 6.175781 73.636719 C 6.191406 73.660156 1.792969 65.515625 0.40625 43.65625 Z M 0.40625 43.65625 "/>
<path style=" stroke:none;fill-rule:nonzero;fill:rgb(55.294118%,87.45098%,11.764706%);fill-opacity:1;" d="M 115.15625 69.613281 C 115.15625 69.613281 112.9375 90.296875 91.546875 104.320312 C 91.546875 104.320312 67.992188 120.007812 41.046875 107.109375 C 41.046875 107.109375 28.734375 100.847656 23.015625 92.613281 C 23.015625 92.613281 33.230469 101.480469 53.195312 104.757812 C 53.195312 104.757812 75.367188 110.078125 91.285156 99.269531 C 91.273438 99.296875 109.429688 89.46875 115.15625 69.613281 Z M 115.15625 69.613281 "/>
<path style=" stroke:none;fill-rule:nonzero;fill:url(#linear1);" d="M 88.238281 28.820312 C 88.238281 28.820312 67.292969 47.179688 44.980469 40.714844 C 44.980469 40.714844 32.058594 38.296875 28.402344 11.640625 L 28.402344 0.414062 C 28.402344 0.414062 18.359375 18.570312 16.167969 38.425781 C 16.167969 38.425781 10.425781 65.734375 26.203125 86.507812 C 26.203125 86.507812 35.859375 98.269531 50.472656 104.410156 C 50.472656 104.410156 46.171875 99.445312 43.167969 85.722656 C 43.167969 85.722656 39.625 63.902344 58.046875 52.410156 C 58.046875 52.410156 64.308594 48.09375 70.3125 45.871094 C 70.296875 45.871094 84.78125 41.304688 88.238281 28.820312 Z M 88.238281 28.820312 "/>
<path style=" stroke:none;fill-rule:nonzero;fill:rgb(55.294118%,87.45098%,11.764706%);fill-opacity:1;" d="M 0.40625 43.65625 C 0.40625 43.65625 -0.621094 76.375 24.484375 98.152344 C 24.484375 98.152344 42.375 113.128906 65.425781 115.621094 C 65.425781 115.621094 93.464844 118.320312 110.457031 103.316406 C 110.457031 103.316406 79.015625 132.152344 38.289062 113.328125 C 38.289062 113.328125 13.539062 102.28125 4.769531 77.75 C 4.769531 77.75 -1.152344 67.714844 0.40625 43.65625 Z M 0.40625 43.65625 "/>
</g>
</svg>
