<svg id="Capa_2" data-name="Capa 2" xmlns="http://www.w3.org/2000/svg" xmlns:xlink="http://www.w3.org/1999/xlink" viewBox="0 0 459.11 202.85"><defs><style>.cls-1{fill:#92db22;}.cls-2{fill:#9ee93e;}.cls-3{fill:#c6eb8b;}.cls-4{fill:#8fdf1f;}.cls-5{fill:#5b9810;}.cls-6{fill:url(#Degradado_sin_nombre_22);}.cls-7{fill:#8ddf1e;}.cls-8{fill:url(#Degradado_sin_nombre_22-2);}</style><linearGradient id="Degradado_sin_nombre_22" x1="95.74" y1="331.24" x2="95.74" y2="154.08" gradientUnits="userSpaceOnUse"><stop offset="0" stop-color="#8fdf1f"/><stop offset="0.01" stop-color="#8edd1f"/><stop offset="0.28" stop-color="#77bd18"/><stop offset="0.54" stop-color="#66a713"/><stop offset="0.79" stop-color="#5c9910"/><stop offset="1" stop-color="#59940f"/></linearGradient><linearGradient id="Degradado_sin_nombre_22-2" x1="96.16" y1="330.65" x2="96.16" y2="154.67" xlink:href="#Degradado_sin_nombre_22"/></defs><title>combeneficos logo</title><path class="cls-1" d="M177.31,223l6.4,1.93a11.81,11.81,0,0,1-2,4.5,8.92,8.92,0,0,1-3.44,2.72,12.93,12.93,0,0,1-5.23.92,15.16,15.16,0,0,1-6.3-1.12A10,10,0,0,1,162.5,228a13.33,13.33,0,0,1-1.77-7.21q0-5.86,3.12-9t8.82-3.15a12,12,0,0,1,7,1.81,10.61,10.61,0,0,1,3.79,5.54L177,217.41a5.73,5.73,0,0,0-.71-1.57,4.21,4.21,0,0,0-1.5-1.29,4.62,4.62,0,0,0-5.79,1.54,8.54,8.54,0,0,0-1,4.65c0,2.62.4,4.41,1.2,5.39a4.71,4.71,0,0,0,6.51.28A7.26,7.26,0,0,0,177.31,223Z" transform="translate(-8.61 -154.08)"/><path class="cls-1" d="M186.33,220.86q0-5.78,3.23-9c2.14-2.14,5.14-3.22,9-3.22s7,1.06,9.09,3.17,3.19,5.07,3.19,8.87a14.66,14.66,0,0,1-1.39,6.79,10,10,0,0,1-4,4.13,13.36,13.36,0,0,1-6.57,1.47,15.07,15.07,0,0,1-6.61-1.27,9.91,9.91,0,0,1-4.25-4A13.45,13.45,0,0,1,186.33,220.86Zm7.3,0c0,2.38.45,4.09,1.33,5.13a5,5,0,0,0,7.26,0q1.29-1.53,1.29-5.5c0-2.22-.45-3.85-1.35-4.87a4.57,4.57,0,0,0-3.65-1.54,4.43,4.43,0,0,0-3.54,1.56C194.08,216.77,193.63,218.49,193.63,220.9Z" transform="translate(-8.61 -154.08)"/><path class="cls-1" d="M214.66,209h9.6l3.7,14.37L231.64,209h9.59v23.62h-6v-18l-4.6,18h-5.41l-4.6-18v18h-6Z" transform="translate(-8.61 -154.08)"/><path class="cls-1" d="M245.9,209h13.67a7.44,7.44,0,0,1,5.24,1.69,5.46,5.46,0,0,1,1.83,4.19,5.25,5.25,0,0,1-1.31,3.59,5.77,5.77,0,0,1-2.54,1.58,6.64,6.64,0,0,1,3.75,2.1,5.81,5.81,0,0,1,1.2,3.75,6.45,6.45,0,0,1-.86,3.3,6.32,6.32,0,0,1-2.33,2.32,7.84,7.84,0,0,1-2.78.78c-1.64.21-2.73.32-3.27.32H245.9Zm7.37,9.26h3.17a3.67,3.67,0,0,0,2.38-.59,2.16,2.16,0,0,0,.67-1.7,2.05,2.05,0,0,0-.67-1.61,3.64,3.64,0,0,0-2.33-.58h-3.22Zm0,9.28H257a4.07,4.07,0,0,0,2.66-.67,2.25,2.25,0,0,0,.77-1.79,2.1,2.1,0,0,0-.76-1.69,4.33,4.33,0,0,0-2.69-.63h-3.7Z" transform="translate(-8.61 -154.08)"/><path class="cls-1" d="M271.54,209H291.1v5H278.85v3.75h11.36v4.82H278.85v4.66h12.6v5.35H271.54Z" transform="translate(-8.61 -154.08)"/><path class="cls-1" d="M295.43,209h6.82l8.9,13.06V209H318v23.62h-6.88l-8.85-13v13h-6.87Z" transform="translate(-8.61 -154.08)"/><path class="cls-1" d="M322.86,209h19.56v5H330.18v3.75h11.36v4.82H330.18v4.66h12.6v5.35H322.86Z" transform="translate(-8.61 -154.08)"/><path class="cls-1" d="M346.74,209h18.05v5.07H354.07v4.13h9.15V223h-9.15v9.65h-7.33Z" transform="translate(-8.61 -154.08)"/><path class="cls-1" d="M369,209h7.31v23.62H369Z" transform="translate(-8.61 -154.08)"/><path class="cls-1" d="M397.29,223l6.39,1.93a11.67,11.67,0,0,1-2,4.5,8.78,8.78,0,0,1-3.44,2.72,12.88,12.88,0,0,1-5.22.92,15.16,15.16,0,0,1-6.3-1.12,10,10,0,0,1-4.21-3.94,13.33,13.33,0,0,1-1.77-7.21q0-5.86,3.11-9t8.83-3.15a11.91,11.91,0,0,1,7,1.81,10.57,10.57,0,0,1,3.8,5.54L397,217.41a5.18,5.18,0,0,0-.71-1.57,4.09,4.09,0,0,0-1.49-1.29,4.38,4.38,0,0,0-2-.45,4.28,4.28,0,0,0-3.8,2,8.45,8.45,0,0,0-1,4.65c0,2.62.4,4.41,1.19,5.39a4.73,4.73,0,0,0,6.52.28A7.36,7.36,0,0,0,397.29,223Z" transform="translate(-8.61 -154.08)"/><path class="cls-1" d="M407.52,209h7.31v23.62h-7.31Z" transform="translate(-8.61 -154.08)"/><path class="cls-1" d="M419.15,220.86q0-5.78,3.22-9t9-3.22q5.89,0,9.09,3.17t3.19,8.87a14.53,14.53,0,0,1-1.4,6.79,10,10,0,0,1-4,4.13,13.36,13.36,0,0,1-6.57,1.47,15.07,15.07,0,0,1-6.61-1.27,9.91,9.91,0,0,1-4.25-4A13.35,13.35,0,0,1,419.15,220.86Zm7.3,0q0,3.57,1.33,5.13a5,5,0,0,0,7.26,0q1.29-1.53,1.29-5.5c0-2.22-.45-3.85-1.35-4.87a4.57,4.57,0,0,0-3.65-1.54,4.43,4.43,0,0,0-3.54,1.56C426.9,216.77,426.45,218.49,426.45,220.9Z" transform="translate(-8.61 -154.08)"/><path class="cls-1" d="M446.29,224.84l6.94-.43a5.31,5.31,0,0,0,.92,2.58,3.87,3.87,0,0,0,3.22,1.43,3.56,3.56,0,0,0,2.41-.73,2.11,2.11,0,0,0,0-3.35,9.38,9.38,0,0,0-3.74-1.37c-3.2-.72-5.48-1.67-6.84-2.87a5.75,5.75,0,0,1-2.07-4.55,6.19,6.19,0,0,1,1.06-3.45,7,7,0,0,1,3.17-2.54,14.8,14.8,0,0,1,5.81-.93q4.53,0,6.91,1.69a7.27,7.27,0,0,1,2.82,5.35l-6.88.41a3.22,3.22,0,0,0-3.57-3.05,2.93,2.93,0,0,0-1.92.54,1.66,1.66,0,0,0-.65,1.31,1.31,1.31,0,0,0,.54,1,6,6,0,0,0,2.45.87,30.33,30.33,0,0,1,6.85,2.09,7.07,7.07,0,0,1,3,2.62,6.6,6.6,0,0,1,1,3.49,7.47,7.47,0,0,1-1.26,4.19,7.88,7.88,0,0,1-3.51,2.91,14.23,14.23,0,0,1-5.69,1q-6,0-8.35-2.32A9.16,9.16,0,0,1,446.29,224.84Z" transform="translate(-8.61 -154.08)"/><path class="cls-2" d="M176.21,266.2,168,245.76a1.09,1.09,0,0,1-.1-.44,1.07,1.07,0,0,1,.34-.78,1.09,1.09,0,0,1,.82-.35,1.27,1.27,0,0,1,.63.2,1,1,0,0,1,.42.5l7.12,17.88,7.13-17.88a1,1,0,0,1,.42-.52,1.11,1.11,0,0,1,.61-.18,1.08,1.08,0,0,1,.82.34,1.09,1.09,0,0,1,.22,1.23L178.37,266a1.9,1.9,0,0,1-.4.62,1,1,0,0,1-.58.25h-.29A1.15,1.15,0,0,1,176.21,266.2Z" transform="translate(-8.61 -154.08)"/><path class="cls-2" d="M189.36,247.48a1.31,1.31,0,0,1-.4-1,1.3,1.3,0,0,1,.4-1,1.31,1.31,0,0,1,1-.39,1.35,1.35,0,0,1,1,.39,1.3,1.3,0,0,1,.4,1,1.37,1.37,0,0,1-1.38,1.37A1.28,1.28,0,0,1,189.36,247.48Zm.15,19a1.07,1.07,0,0,1-.34-.81V251.37a1.1,1.1,0,0,1,.34-.83,1.15,1.15,0,0,1,.82-.34,1.08,1.08,0,0,1,.81.34,1.16,1.16,0,0,1,.32.83v14.27a1.13,1.13,0,0,1-1.13,1.14A1.14,1.14,0,0,1,189.51,266.45Z" transform="translate(-8.61 -154.08)"/><path class="cls-2" d="M200.4,266.62a1.29,1.29,0,0,1-.43-.5l-5.91-14.33a1,1,0,0,1-.12-.49,1.09,1.09,0,0,1,.32-.79,1.16,1.16,0,0,1,1.44-.16,1.16,1.16,0,0,1,.42.52L201,263l4.89-12.08a1.08,1.08,0,0,1,.41-.52,1.11,1.11,0,0,1,.61-.18,1.14,1.14,0,0,1,1.16,1.13,1.26,1.26,0,0,1-.1.49l-5.93,14.33a2.52,2.52,0,0,1-.44.53,1,1,0,0,1-.62.17A1,1,0,0,1,200.4,266.62Z" transform="translate(-8.61 -154.08)"/><path class="cls-2" d="M213.73,266.25a8.4,8.4,0,0,1-4.48-4.47,8.3,8.3,0,0,1,0-6.44,8.39,8.39,0,0,1,1.81-2.69,8.49,8.49,0,0,1,2.67-1.8,8.28,8.28,0,0,1,6.43,0,8.7,8.7,0,0,1,2.69,1.8,8.46,8.46,0,0,1,2.48,5.86,1.06,1.06,0,0,1-1.11,1.09H211.13a5.53,5.53,0,0,0,.64,2,5.89,5.89,0,0,0,1.29,1.64,6.24,6.24,0,0,0,1.8,1.09,5.75,5.75,0,0,0,2.1.39,6.39,6.39,0,0,0,1.67-.18,6.81,6.81,0,0,0,1.37-.6,1.32,1.32,0,0,1,.7-.21,1,1,0,0,1,.78.37,1.2,1.2,0,0,1,.33.83,1,1,0,0,1-.55.92,7.55,7.55,0,0,1-1.86.79,10.18,10.18,0,0,1-2.44.27A8.07,8.07,0,0,1,213.73,266.25Zm9.28-8.56a6.15,6.15,0,0,0-.65-2.09,5.57,5.57,0,0,0-1.32-1.69,6.12,6.12,0,0,0-4-1.52,5.87,5.87,0,0,0-4,1.56,6,6,0,0,0-1.9,3.74Z" transform="translate(-8.61 -154.08)"/><path class="cls-2" d="M235.81,272.28a1.11,1.11,0,0,1-.35-.83V258.58a8.26,8.26,0,0,1,2.47-5.93,8.49,8.49,0,0,1,2.67-1.8,8.3,8.3,0,0,1,6.44,0,8.65,8.65,0,0,1,2.68,1.8,8.16,8.16,0,0,1,1.78,2.68,8.34,8.34,0,0,1,.64,3.25,8.11,8.11,0,0,1-.64,3.21,8.22,8.22,0,0,1-1.78,2.67,8.45,8.45,0,0,1-2.68,1.79,8,8,0,0,1-3.22.65,8.27,8.27,0,0,1-3.35-.69,8.15,8.15,0,0,1-2.73-1.94v7.18a1.21,1.21,0,0,1-.31.84,1,1,0,0,1-.8.34A1.1,1.1,0,0,1,235.81,272.28Zm10.38-8.12a6,6,0,0,0,1.94-1.33,5.86,5.86,0,0,0,1.3-1.94,6,6,0,0,0,.46-2.31,6.18,6.18,0,0,0-.46-2.34,6.09,6.09,0,0,0-9.92-2,6.17,6.17,0,0,0-1.3,2,5.82,5.82,0,0,0-.47,2.34,5.68,5.68,0,0,0,.47,2.31,6,6,0,0,0,1.3,1.94,5.93,5.93,0,0,0,2,1.33,6.19,6.19,0,0,0,4.73,0Z" transform="translate(-8.61 -154.08)"/><path class="cls-2" d="M261.3,266.41a1.09,1.09,0,0,1-.8.3h0a5.68,5.68,0,0,1-2.21-.41,5.27,5.27,0,0,1-1.78-1.18,5.13,5.13,0,0,1-1.17-1.83,6.41,6.41,0,0,1-.41-2.37V245.45a1.13,1.13,0,0,1,.31-.82,1,1,0,0,1,.8-.34,1.16,1.16,0,0,1,1.16,1.16v15.44a3.75,3.75,0,0,0,.85,2.61,3.13,3.13,0,0,0,2.38,1h.08a1.11,1.11,0,0,1,1.13,1.13A1.09,1.09,0,0,1,261.3,266.41Z" transform="translate(-8.61 -154.08)"/><path class="cls-2" d="M267.86,266.25a8.45,8.45,0,0,1-2.68-1.79,8.35,8.35,0,0,1-1.81-2.68,8.3,8.3,0,0,1,0-6.44,8.39,8.39,0,0,1,1.81-2.69,8.65,8.65,0,0,1,2.68-1.8,8.25,8.25,0,0,1,6.42,0,8.86,8.86,0,0,1,2.7,1.8,8.56,8.56,0,0,1,1.8,2.66,8.16,8.16,0,0,1,.67,3.2,1,1,0,0,1-1.11,1.09H265.25a5.74,5.74,0,0,0,.64,2,6.08,6.08,0,0,0,1.29,1.64,6.29,6.29,0,0,0,1.81,1.09,5.66,5.66,0,0,0,2.09.39,6.39,6.39,0,0,0,1.67-.18,6.58,6.58,0,0,0,1.37-.6,1.32,1.32,0,0,1,.7-.21,1,1,0,0,1,.79.37,1.23,1.23,0,0,1,.32.83,1,1,0,0,1-.54.92,7.77,7.77,0,0,1-1.87.79,10.18,10.18,0,0,1-2.44.27A8,8,0,0,1,267.86,266.25Zm9.27-8.56a6.13,6.13,0,0,0-.64-2.09,5.76,5.76,0,0,0-1.33-1.69,6,6,0,0,0-1.86-1.12,6.17,6.17,0,0,0-2.19-.4,6,6,0,0,0-2.19.41,6.14,6.14,0,0,0-1.84,1.15,6,6,0,0,0-1.9,3.74Z" transform="translate(-8.61 -154.08)"/><path class="cls-2" d="M281.8,266.37a1,1,0,0,1-.35-.8v-7.35a8.48,8.48,0,0,1,.58-3.09,8.05,8.05,0,0,1,1.64-2.58,7.69,7.69,0,0,1,11.06,0,8.06,8.06,0,0,1,1.62,2.57,8.49,8.49,0,0,1,.57,3.1v7.37a1.09,1.09,0,0,1-1.13,1.13,1.13,1.13,0,0,1-.81-.32,1.07,1.07,0,0,1-.33-.81v-7.28a6.44,6.44,0,0,0-.4-2.24,6,6,0,0,0-1.12-1.85,5.41,5.41,0,0,0-1.76-1.24,5.16,5.16,0,0,0-2.16-.45,5.35,5.35,0,0,0-3.91,1.66,5.53,5.53,0,0,0-1.15,1.83,6.23,6.23,0,0,0-.41,2.24v7.33a1.13,1.13,0,0,1-.3.81,1.1,1.1,0,0,1-.81.32A1.18,1.18,0,0,1,281.8,266.37Z" transform="translate(-8.61 -154.08)"/><path class="cls-2" d="M304.52,266.26a8.26,8.26,0,0,1-2.64-1.8,8.06,8.06,0,0,1-1.78-2.67,8.28,8.28,0,0,1-.63-3.21,8.43,8.43,0,0,1,.63-3.24,8.15,8.15,0,0,1,1.78-2.69,8,8,0,0,1,2.64-1.8,8.22,8.22,0,0,1,9.06,1.8,8.26,8.26,0,0,1,1.76,2.68,8.51,8.51,0,0,1,.63,3.25v7a1.14,1.14,0,0,1-.34.84,1.12,1.12,0,0,1-.84.34,1,1,0,0,1-.8-.33,1.23,1.23,0,0,1-.31-.85v-1.23a8.26,8.26,0,0,1-2.68,1.87,8.38,8.38,0,0,1-6.47,0Zm5.57-2.1a5.53,5.53,0,0,0,1.9-1.33,5.88,5.88,0,0,0,1.25-1.94,6,6,0,0,0,.44-2.31,6.25,6.25,0,0,0-.44-2.35,5.86,5.86,0,0,0-3.16-3.25,6,6,0,0,0-2.36-.47,5.87,5.87,0,0,0-4.24,1.78,5.92,5.92,0,0,0-1.27,2,6.18,6.18,0,0,0-.46,2.34,6,6,0,0,0,.46,2.31,6.1,6.1,0,0,0,3.18,3.27,5.84,5.84,0,0,0,2.33.47A6.07,6.07,0,0,0,310.09,264.16Z" transform="translate(-8.61 -154.08)"/><path class="cls-2" d="M319.55,266.37a1.09,1.09,0,0,1-.33-.82V255.5a5.35,5.35,0,0,1,.41-2.07,5.55,5.55,0,0,1,1.16-1.72,5.38,5.38,0,0,1,1.72-1.16,5.33,5.33,0,0,1,4.41.14,5.79,5.79,0,0,1,1.89,1.51,5.55,5.55,0,0,1,1.85-1.51,5.17,5.17,0,0,1,2.35-.55,5.53,5.53,0,0,1,3.83,1.55,5.6,5.6,0,0,1,1.2,1.73,5.18,5.18,0,0,1,.42,2.07v10.06a1.06,1.06,0,0,1-.34.82,1.15,1.15,0,0,1-1.95-.82v-9.88a3.32,3.32,0,0,0-.23-1.2,3.44,3.44,0,0,0-.67-1,3.07,3.07,0,0,0-2.24-.93,2.93,2.93,0,0,0-1.14.22,3.19,3.19,0,0,0-1,.63,3.13,3.13,0,0,0-1,2.07.19.19,0,0,0,0,.08v10a1.15,1.15,0,0,1-.34.82,1.13,1.13,0,0,1-.81.33,1.08,1.08,0,0,1-.8-.33,1.13,1.13,0,0,1-.32-.82v-9.84a3.11,3.11,0,0,0-.24-1.21,3.36,3.36,0,0,0-.65-1,3,3,0,0,0-1-.7,2.88,2.88,0,0,0-1.21-.25,2.85,2.85,0,0,0-1.13.22,3.09,3.09,0,0,0-1,.62,3.33,3.33,0,0,0-.68.92,3.08,3.08,0,0,0-.31,1.09.13.13,0,0,0,0,.09v.1l0,10a1.15,1.15,0,0,1-.35.82,1.09,1.09,0,0,1-.79.33A1.14,1.14,0,0,1,319.55,266.37Z" transform="translate(-8.61 -154.08)"/><path class="cls-2" d="M345.75,266.25a8.3,8.3,0,0,1-2.67-1.79,8.19,8.19,0,0,1-1.81-2.68,8.3,8.3,0,0,1,0-6.44,8.23,8.23,0,0,1,1.81-2.69,8.49,8.49,0,0,1,2.67-1.8,8.28,8.28,0,0,1,6.43,0,8.7,8.7,0,0,1,2.69,1.8,8.39,8.39,0,0,1,1.8,2.66,8.17,8.17,0,0,1,.68,3.2,1.06,1.06,0,0,1-1.11,1.09H343.15a5.53,5.53,0,0,0,.64,2,5.71,5.71,0,0,0,1.29,1.64,6.1,6.1,0,0,0,1.8,1.09,5.75,5.75,0,0,0,2.1.39,6.39,6.39,0,0,0,1.67-.18,6.81,6.81,0,0,0,1.37-.6,1.32,1.32,0,0,1,.7-.21,1,1,0,0,1,.78.37,1.2,1.2,0,0,1,.33.83,1,1,0,0,1-.55.92,7.55,7.55,0,0,1-1.86.79,10.18,10.18,0,0,1-2.44.27A8.07,8.07,0,0,1,345.75,266.25Zm9.27-8.56a5.92,5.92,0,0,0-.64-2.09,5.57,5.57,0,0,0-1.32-1.69,6.12,6.12,0,0,0-4.05-1.52,5.87,5.87,0,0,0-4,1.56,5.8,5.8,0,0,0-1.29,1.69,5.92,5.92,0,0,0-.61,2.05Z" transform="translate(-8.61 -154.08)"/><path class="cls-2" d="M359.7,266.37a1,1,0,0,1-.35-.8v-7.35a8.28,8.28,0,0,1,.58-3.09,7.89,7.89,0,0,1,1.64-2.58,7.72,7.72,0,0,1,8.58-1.73,7.75,7.75,0,0,1,2.48,1.71,8,8,0,0,1,1.61,2.57,8.49,8.49,0,0,1,.57,3.1v7.37a1.08,1.08,0,0,1-1.12,1.13,1.13,1.13,0,0,1-.81-.32,1,1,0,0,1-.34-.81v-7.28a6.22,6.22,0,0,0-.4-2.24A5.76,5.76,0,0,0,371,254.2,5.42,5.42,0,0,0,365,253a5.51,5.51,0,0,0-1.76,1.22,5.35,5.35,0,0,0-1.14,1.83,6.23,6.23,0,0,0-.41,2.24v7.33a1.09,1.09,0,0,1-.31.81,1.06,1.06,0,0,1-.8.32A1.16,1.16,0,0,1,359.7,266.37Z" transform="translate(-8.61 -154.08)"/><path class="cls-2" d="M383.18,266.29a8.14,8.14,0,0,1-2.67-1.73,8.23,8.23,0,0,1-1.82-2.62,8,8,0,0,1-.64-3.21V246.44a1.15,1.15,0,0,1,2-.82,1.09,1.09,0,0,1,.35.82v3.92h7.54a1.13,1.13,0,0,1,.82.34,1.15,1.15,0,0,1,.34.82,1,1,0,0,1-.33.78,1.17,1.17,0,0,1-.83.31h-7.54v6.14a5.72,5.72,0,0,0,1.76,4.19,6.16,6.16,0,0,0,1.94,1.25,6,6,0,0,0,2.37.46,6.09,6.09,0,0,0,2.12-.36,5.58,5.58,0,0,0,1.82-1.1,3.06,3.06,0,0,1,.43-.28,1.08,1.08,0,0,1,.46-.09.93.93,0,0,1,.71.31,1.07,1.07,0,0,1,.3.76,1.39,1.39,0,0,1-.11.52,1.16,1.16,0,0,1-.32.44,7.24,7.24,0,0,1-2.45,1.55,8.72,8.72,0,0,1-6.22-.11Z" transform="translate(-8.61 -154.08)"/><path class="cls-2" d="M398.36,266.25a8.37,8.37,0,0,1-4.49-4.47,8.3,8.3,0,0,1,0-6.44,8.39,8.39,0,0,1,1.81-2.69,8.54,8.54,0,0,1,2.68-1.8,8.25,8.25,0,0,1,6.42,0,8.7,8.7,0,0,1,2.69,1.8,8.42,8.42,0,0,1,1.81,2.66,8.34,8.34,0,0,1,.67,3.2,1.06,1.06,0,0,1-1.11,1.09H395.75a5.53,5.53,0,0,0,.64,2,6.08,6.08,0,0,0,1.29,1.64,6.37,6.37,0,0,0,1.8,1.09,5.75,5.75,0,0,0,2.1.39,6.39,6.39,0,0,0,1.67-.18,6.58,6.58,0,0,0,1.37-.6,1.32,1.32,0,0,1,.7-.21,1,1,0,0,1,.79.37,1.23,1.23,0,0,1,.32.83,1,1,0,0,1-.55.92,7.55,7.55,0,0,1-1.86.79,10.18,10.18,0,0,1-2.44.27A8,8,0,0,1,398.36,266.25Zm9.27-8.56a6.13,6.13,0,0,0-.64-2.09,5.76,5.76,0,0,0-1.33-1.69,6.12,6.12,0,0,0-4.05-1.52,5.92,5.92,0,0,0-2.19.41,6,6,0,0,0-1.84,1.15,5.77,5.77,0,0,0-1.28,1.69,5.94,5.94,0,0,0-.62,2.05Z" transform="translate(-8.61 -154.08)"/><circle class="cls-3" cx="55.81" cy="41.34" r="19.23"/><path class="cls-3" d="M118.17,212.8s9.48-10.75,8.74-21.29c0,0-16.65,17.16-23.36,21.29,0,0-9,7-18,10.4,0,0,2.68,5.16,17.79-2.43C103.33,220.77,113.7,217.44,118.17,212.8Z" transform="translate(-8.61 -154.08)"/><path class="cls-4" d="M128,218.88s13.33-10.86,14.29-23.46c0,0-16.9,13.63-25,17.91,0,0-13.46,8.26-28.44,10.8C88.77,224.13,101.8,230.12,128,218.88Z" transform="translate(-8.61 -154.08)"/><path class="cls-3" d="M25.42,196.71s-8.39-21.33-9-28.92c0,0-2.91,16.32-3.68,25.94a171.94,171.94,0,0,0-1.44,20s0,20.93,1.77,28.93c0,0,3,21.31,8.07,31.56,0,0,7.29,16.89,16.69,26.95,0,0,9.5,10.39,18.24,16,0,0,17,11.6,36.26,13.3,0,0-33.31-17.61-41.27-28.08,0,0-28-47.75-25.94-65.73Z" transform="translate(-8.61 -154.08)"/><path class="cls-4" d="M41.71,191.51s-4.15-8.29-6.69-31.72c0,0-12.16,30.84-12.83,70.86,0,0,.95,31,9.76,48.19,0,0,7.49,17.69,21.41,30.29,0,0,19.68,17.17,41.9,22.11,0,0-45.14-33.39-45.14-44.15,0,0-10.76-33.75-9.28-48.34Z" transform="translate(-8.61 -154.08)"/><circle class="cls-4" cx="72.91" cy="37.44" r="19.23"/><circle class="cls-5" cx="89.37" cy="37.44" r="19.23"/><path class="cls-6" d="M95.26,331.24S79,317.53,80.89,285.92c0,0,2-26.39,19.49-38.62,0,0,10-7.76,11.18-8.2,0,0,13-7.29,16.53-8.34a56.47,56.47,0,0,0,16-9.07,63.58,63.58,0,0,0,5.92-5.25s4.58-4.92,5.58-7.85c0,0,1.6-4.31,2.1-6.19,0,0-5.49,4.53-8.09,5.66l-10,5.51-11.15,5.12a100,100,0,0,1-24.15,6.13A39.93,39.93,0,0,1,78.42,220s-9.87-6.78-12.9-13.41c0,0-4.93-9.21-6.26-16.88a110.09,110.09,0,0,1-3-19.08V154.08s-4.35,8.55-5.6,12.23c0,0-6.56,17.47-7.37,19.9,0,0-6.19,20.63-6.27,23.65,0,0-2.8,18.57-3.09,26.16,0,0-.44,13.79.66,19.75,0,0,3,16.88,6.64,25.5a81,81,0,0,0,11.57,19.46A97.77,97.77,0,0,0,65,314.29s9.36,6.92,15.77,10.24Z" transform="translate(-8.61 -154.08)"/><path class="cls-7" d="M9.3,227.85s-3.39,33.75,4.86,50.84c0,0,8.4,27.12,27.12,44.37,0,0,27.78,32.5,80.62,33.82,0,0,38,2.43,73.84-28.08,0,0-50.19,38.69-113,11.5,0,0-22.55-7.52-45.54-32.72,0,0-2.44,0-18.13-29C19.1,278.62,11.65,264.84,9.3,227.85Z" transform="translate(-8.61 -154.08)"/><path class="cls-7" d="M203.7,271.77s-3.76,35-40,58.73c0,0-39.9,26.54-85.55,4.72,0,0-20.86-10.6-30.55-24.53,0,0,17.31,15,51.13,20.55,0,0,37.56,9,64.53-9.29C163.24,322,194,305.37,203.7,271.77Z" transform="translate(-8.61 -154.08)"/><path class="cls-8" d="M158.1,202.75s-35.49,31.06-73.29,20.12c0,0-21.89-4.09-28.08-49.19v-19S39.71,185.4,36,219c0,0-9.73,46.21,17,81.36,0,0,16.36,19.9,41.12,30.29,0,0-7.29-8.4-12.38-31.62,0,0-6-36.92,25.21-56.37,0,0,10.61-7.3,20.78-11.06C127.7,231.6,152.24,223.87,158.1,202.75Z" transform="translate(-8.61 -154.08)"/><path class="cls-7" d="M9.3,227.85s-1.74,55.36,40.79,92.21c0,0,30.31,25.34,69.36,29.56,0,0,47.5,4.57,76.29-20.82,0,0-53.27,48.79-122.26,16.94,0,0-41.93-18.69-56.79-60.2C16.69,285.54,6.66,268.56,9.3,227.85Z" transform="translate(-8.61 -154.08)"/></svg>