<svg xmlns="http://www.w3.org/2000/svg" xmlns:xlink="http://www.w3.org/1999/xlink" viewBox="0 0 289.08 385.31"><defs><style>.cls-1{fill:#92db22;}.cls-2{fill:#9ee93e;}.cls-3{fill:#c6eb8b;}.cls-4{fill:#8fdf1f;}.cls-5{fill:#5b9810;}.cls-6{fill:url(#Degradado_sin_nombre_22);}.cls-7{fill:#8ddf1e;}.cls-8{fill:url(#Degradado_sin_nombre_22-2);}</style><linearGradient id="Degradado_sin_nombre_22" x1="245.82" y1="318.37" x2="245.82" y2="60.8" gradientUnits="userSpaceOnUse"><stop offset="0" stop-color="#8fdf1f"/><stop offset="0.01" stop-color="#8edd1f"/><stop offset="0.28" stop-color="#77bd18"/><stop offset="0.54" stop-color="#66a713"/><stop offset="0.79" stop-color="#5c9910"/><stop offset="1" stop-color="#59940f"/></linearGradient><linearGradient id="Degradado_sin_nombre_22-2" x1="246.43" y1="317.51" x2="246.43" y2="61.65" xlink:href="#Degradado_sin_nombre_22"/></defs><title>COMBENEFICIOS LOGO</title><g id="Capa_2" data-name="Capa 2"><path class="cls-1" d="M128.77,401.69l5.82,1.76a10.78,10.78,0,0,1-1.85,4.09,8,8,0,0,1-3.12,2.47,11.67,11.67,0,0,1-4.76.84,13.78,13.78,0,0,1-5.72-1,9.1,9.1,0,0,1-3.83-3.58,12.17,12.17,0,0,1-1.61-6.56c0-3.55,1-6.28,2.83-8.19s4.57-2.86,8-2.86a10.89,10.89,0,0,1,6.38,1.64,9.63,9.63,0,0,1,3.45,5l-5.86,1.3a5,5,0,0,0-.64-1.43,3.8,3.8,0,0,0-1.36-1.17,3.85,3.85,0,0,0-1.8-.41,3.89,3.89,0,0,0-3.46,1.81,7.68,7.68,0,0,0-.91,4.23q0,3.57,1.08,4.89a4.28,4.28,0,0,0,5.93.26A6.62,6.62,0,0,0,128.77,401.69Z" transform="translate(-113.7 -60.8)"/><path class="cls-1" d="M137,399.76c0-3.51,1-6.24,2.93-8.19s4.67-2.93,8.16-2.93,6.32,1,8.26,2.88,2.9,4.61,2.9,8.06a13.19,13.19,0,0,1-1.27,6.18,9.06,9.06,0,0,1-3.66,3.75,12.15,12.15,0,0,1-6,1.34,13.72,13.72,0,0,1-6-1.16,9,9,0,0,1-3.86-3.66A12.12,12.12,0,0,1,137,399.76Zm6.63,0c0,2.17.41,3.72,1.21,4.67a4.58,4.58,0,0,0,6.6,0q1.17-1.39,1.17-5a6.69,6.69,0,0,0-1.22-4.44,4.19,4.19,0,0,0-3.32-1.39,4,4,0,0,0-3.22,1.42C144,396,143.61,397.6,143.61,399.79Z" transform="translate(-113.7 -60.8)"/><path class="cls-1" d="M162.73,389h8.73l3.36,13.06L178.16,389h8.72v21.47h-5.43V394.1l-4.19,16.38h-4.92l-4.18-16.38v16.38h-5.43Z" transform="translate(-113.7 -60.8)"/><path class="cls-1" d="M191.13,389h12.42a6.8,6.8,0,0,1,4.77,1.53,5,5,0,0,1,1.66,3.81,4.82,4.82,0,0,1-1.18,3.27,5.34,5.34,0,0,1-2.32,1.44,6,6,0,0,1,3.41,1.91,5.23,5.23,0,0,1,1.09,3.4,5.85,5.85,0,0,1-.78,3,5.72,5.72,0,0,1-2.12,2.11,7.18,7.18,0,0,1-2.52.7c-1.49.19-2.48.29-3,.29H191.13Zm6.7,8.42h2.88a3.34,3.34,0,0,0,2.16-.53,2,2,0,0,0,.61-1.55,1.84,1.84,0,0,0-.61-1.47,3.26,3.26,0,0,0-2.11-.52h-2.93Zm0,8.44h3.38a3.71,3.71,0,0,0,2.42-.61,2,2,0,0,0,.7-1.63,1.89,1.89,0,0,0-.7-1.54,3.9,3.9,0,0,0-2.43-.57h-3.37Z" transform="translate(-113.7 -60.8)"/><path class="cls-1" d="M214.44,389h17.78v4.58H221.09V397h10.33v4.38H221.09v4.24h11.45v4.86h-18.1Z" transform="translate(-113.7 -60.8)"/><path class="cls-1" d="M236.16,389h6.2l8.08,11.88V389h6.26v21.47h-6.26l-8-11.79v11.79h-6.24Z" transform="translate(-113.7 -60.8)"/><path class="cls-1" d="M261.09,389h17.79v4.58H267.74V397h10.33v4.38H267.74v4.24H279.2v4.86H261.09Z" transform="translate(-113.7 -60.8)"/><path class="cls-1" d="M282.8,389h16.41v4.61h-9.74v3.75h8.32v4.34h-8.32v8.77H282.8Z" transform="translate(-113.7 -60.8)"/><path class="cls-1" d="M303.05,389h6.65v21.47h-6.65Z" transform="translate(-113.7 -60.8)"/><path class="cls-1" d="M328.75,401.69l5.82,1.76a10.78,10.78,0,0,1-1.85,4.09A8,8,0,0,1,329.6,410a11.67,11.67,0,0,1-4.76.84,13.78,13.78,0,0,1-5.72-1,9.1,9.1,0,0,1-3.83-3.58,12.17,12.17,0,0,1-1.61-6.56q0-5.32,2.84-8.19c1.88-1.91,4.56-2.86,8-2.86a10.88,10.88,0,0,1,6.37,1.64,9.63,9.63,0,0,1,3.45,5l-5.86,1.3a5,5,0,0,0-.64-1.43A3.72,3.72,0,0,0,326.5,394a3.85,3.85,0,0,0-1.8-.41,3.89,3.89,0,0,0-3.46,1.81,7.68,7.68,0,0,0-.91,4.23c0,2.38.36,4,1.09,4.89a4.26,4.26,0,0,0,5.92.26A6.62,6.62,0,0,0,328.75,401.69Z" transform="translate(-113.7 -60.8)"/><path class="cls-1" d="M338.06,389h6.65v21.47h-6.65Z" transform="translate(-113.7 -60.8)"/><path class="cls-1" d="M348.63,399.76q0-5.26,2.93-8.19t8.16-2.93c3.57,0,6.33,1,8.26,2.88s2.9,4.61,2.9,8.06a13.32,13.32,0,0,1-1.26,6.18,9.14,9.14,0,0,1-3.67,3.75,12.09,12.09,0,0,1-6,1.34,13.76,13.76,0,0,1-6-1.16,9,9,0,0,1-3.86-3.66A12.22,12.22,0,0,1,348.63,399.76Zm6.64,0c0,2.17.4,3.72,1.21,4.67a4.58,4.58,0,0,0,6.6,0q1.17-1.39,1.17-5a6.63,6.63,0,0,0-1.23-4.44,4.17,4.17,0,0,0-3.31-1.39,4,4,0,0,0-3.23,1.42C355.67,396,355.27,397.6,355.27,399.79Z" transform="translate(-113.7 -60.8)"/><path class="cls-1" d="M373.3,403.38l6.31-.4a4.87,4.87,0,0,0,.84,2.35,3.53,3.53,0,0,0,2.93,1.3,3.22,3.22,0,0,0,2.19-.67,1.91,1.91,0,0,0,0-3,8.42,8.42,0,0,0-3.39-1.24,14.59,14.59,0,0,1-6.23-2.61,5.24,5.24,0,0,1-1.87-4.15,5.6,5.6,0,0,1,.95-3.12,6.41,6.41,0,0,1,2.89-2.32,13.51,13.51,0,0,1,5.28-.84,10.8,10.8,0,0,1,6.28,1.53,6.61,6.61,0,0,1,2.57,4.87l-6.26.37a3.33,3.33,0,0,0-1-2.11,3.39,3.39,0,0,0-2.21-.66,2.64,2.64,0,0,0-1.74.49,1.52,1.52,0,0,0-.59,1.19,1.19,1.19,0,0,0,.49.93A5.53,5.53,0,0,0,383,396a28.37,28.37,0,0,1,6.24,1.89,6.71,6.71,0,0,1,2.74,2.39,6,6,0,0,1,.85,3.17,6.81,6.81,0,0,1-1.14,3.81,7.19,7.19,0,0,1-3.19,2.65,12.92,12.92,0,0,1-5.17.9c-3.66,0-6.19-.71-7.59-2.11A8.35,8.35,0,0,1,373.3,403.38Z" transform="translate(-113.7 -60.8)"/><path class="cls-2" d="M163,441l-6.53-16.35a.69.69,0,0,1-.08-.35.89.89,0,0,1,.26-.62.88.88,0,0,1,.67-.28.94.94,0,0,1,.49.15.81.81,0,0,1,.34.41l5.7,14.3,5.7-14.3a.8.8,0,0,1,.34-.42.84.84,0,0,1,.48-.14.87.87,0,0,1,.66.27.88.88,0,0,1,.26.61,1,1,0,0,1-.08.37l-6.48,16.22a1.48,1.48,0,0,1-.32.49.85.85,0,0,1-.46.21h-.24A.93.93,0,0,1,163,441Z" transform="translate(-113.7 -60.8)"/><path class="cls-2" d="M173.48,426a1.08,1.08,0,0,1-.32-.78,1.1,1.1,0,0,1,1.88-.77,1,1,0,0,1,.32.77,1,1,0,0,1-.32.78,1.11,1.11,0,0,1-1.56,0Zm.12,15.17a.86.86,0,0,1-.27-.65V429.1a.9.9,0,0,1,.27-.67.93.93,0,0,1,.66-.26.89.89,0,0,1,.65.26,1,1,0,0,1,.25.67v11.41a.92.92,0,0,1-.9.92A.9.9,0,0,1,173.6,441.16Z" transform="translate(-113.7 -60.8)"/><path class="cls-2" d="M182.31,441.3a1,1,0,0,1-.34-.4l-4.73-11.46a.77.77,0,0,1-.1-.4.93.93,0,0,1,.26-.63.89.89,0,0,1,.67-.27.92.92,0,0,1,.48.14,1,1,0,0,1,.34.42l3.92,9.67,3.92-9.67a.87.87,0,0,1,.33-.42.93.93,0,0,1,.49-.14.92.92,0,0,1,.93.9,1,1,0,0,1-.09.4l-4.74,11.46a1.56,1.56,0,0,1-.36.42.79.79,0,0,1-.49.14A.84.84,0,0,1,182.31,441.3Z" transform="translate(-113.7 -60.8)"/><path class="cls-2" d="M193,441a6.72,6.72,0,0,1-2.14-1.44,6.59,6.59,0,0,1-1.45-2.14,6.64,6.64,0,0,1,0-5.15,6.78,6.78,0,0,1,1.45-2.16,6.54,6.54,0,0,1,2.14-1.43,6.61,6.61,0,0,1,5.14,0,6.69,6.69,0,0,1,3.6,3.57,6.55,6.55,0,0,1,.54,2.55.87.87,0,0,1-.89.88H190.9a4.49,4.49,0,0,0,.51,1.59,4.86,4.86,0,0,0,1,1.31,5,5,0,0,0,1.44.87,4.56,4.56,0,0,0,1.68.32,5,5,0,0,0,1.34-.15,5.6,5.6,0,0,0,1.09-.48,1.07,1.07,0,0,1,.56-.17.8.8,0,0,1,.63.3,1,1,0,0,1,.26.66.81.81,0,0,1-.44.74,6.13,6.13,0,0,1-1.49.63,8.3,8.3,0,0,1-1.95.22A6.64,6.64,0,0,1,193,441Zm7.42-6.85a5,5,0,0,0-.52-1.68,4.59,4.59,0,0,0-1.06-1.35,4.76,4.76,0,0,0-1.49-.89,4.89,4.89,0,0,0-1.75-.32,4.8,4.8,0,0,0-3.22,1.24,4.79,4.79,0,0,0-1,1.36,4.72,4.72,0,0,0-.49,1.64Z" transform="translate(-113.7 -60.8)"/><path class="cls-2" d="M210.64,445.83a.88.88,0,0,1-.28-.67V434.87a6.74,6.74,0,0,1,.52-2.6,6.69,6.69,0,0,1,3.59-3.58,6.66,6.66,0,0,1,5.16,0,6.64,6.64,0,0,1,2.14,1.43,6.81,6.81,0,0,1,1.94,4.75,6.42,6.42,0,0,1-.52,2.57,6.57,6.57,0,0,1-1.42,2.13,6.84,6.84,0,0,1-2.14,1.44,6.68,6.68,0,0,1-2.58.52,6.57,6.57,0,0,1-2.68-.56,6.66,6.66,0,0,1-2.19-1.55v5.74a1,1,0,0,1-.24.68.85.85,0,0,1-.65.27A.9.9,0,0,1,210.64,445.83Zm8.3-6.5a4.6,4.6,0,0,0,1.55-1.06,4.55,4.55,0,0,0,1-1.55,4.7,4.7,0,0,0,.37-1.85,4.81,4.81,0,0,0-.37-1.88,4.55,4.55,0,0,0-1-1.55,4.73,4.73,0,0,0-1.55-1.05,4.87,4.87,0,0,0-1.89-.38,4.8,4.8,0,0,0-1.89.38,4.87,4.87,0,0,0-2.6,2.6,4.82,4.82,0,0,0-.38,1.88,4.71,4.71,0,0,0,.38,1.85,4.86,4.86,0,0,0,1,1.55,4.75,4.75,0,0,0,1.56,1.06,4.89,4.89,0,0,0,3.78,0Z" transform="translate(-113.7 -60.8)"/><path class="cls-2" d="M231,441.13a.91.91,0,0,1-.65.25h0a4.65,4.65,0,0,1-1.77-.33,4.27,4.27,0,0,1-1.42-.95,4.17,4.17,0,0,1-.94-1.47,5.21,5.21,0,0,1-.33-1.89V424.37a.93.93,0,0,1,.25-.67.87.87,0,0,1,.64-.26.92.92,0,0,1,.65.26.88.88,0,0,1,.28.67v12.34a3,3,0,0,0,.68,2.09,2.47,2.47,0,0,0,1.9.78h.07a.93.93,0,0,1,.66,1.55Z" transform="translate(-113.7 -60.8)"/><path class="cls-2" d="M236.28,441a6.72,6.72,0,0,1-2.14-1.44,6.59,6.59,0,0,1-1.45-2.14,6.64,6.64,0,0,1,0-5.15,6.78,6.78,0,0,1,1.45-2.16,6.54,6.54,0,0,1,2.14-1.43,6.61,6.61,0,0,1,5.14,0,6.8,6.8,0,0,1,2.15,1.43,6.92,6.92,0,0,1,1.45,2.14,6.55,6.55,0,0,1,.54,2.55.87.87,0,0,1-.89.88H234.19a4.72,4.72,0,0,0,.52,1.59,4.86,4.86,0,0,0,1,1.31,5,5,0,0,0,1.44.87,4.52,4.52,0,0,0,1.68.32,5,5,0,0,0,1.34-.15,5.6,5.6,0,0,0,1.09-.48,1.07,1.07,0,0,1,.56-.17.8.8,0,0,1,.63.3,1,1,0,0,1,.26.66.81.81,0,0,1-.44.74,6.13,6.13,0,0,1-1.49.63,8.3,8.3,0,0,1-1.95.22A6.61,6.61,0,0,1,236.28,441Zm7.42-6.85a5,5,0,0,0-.52-1.68,4.73,4.73,0,0,0-2.55-2.24,4.89,4.89,0,0,0-1.75-.32,4.66,4.66,0,0,0-1.75.33,4.44,4.44,0,0,0-1.47.91,4.79,4.79,0,0,0-1,1.36,4.72,4.72,0,0,0-.49,1.64Z" transform="translate(-113.7 -60.8)"/><path class="cls-2" d="M247.44,441.1a.84.84,0,0,1-.29-.64v-5.88a6.62,6.62,0,0,1,.47-2.47,6.35,6.35,0,0,1,1.31-2.07,6.06,6.06,0,0,1,4.43-1.87,6,6,0,0,1,2.44.49,6.17,6.17,0,0,1,2,1.37,6.6,6.6,0,0,1,1.29,2.05,6.68,6.68,0,0,1,.46,2.49v5.89a.92.92,0,0,1-.25.65,1,1,0,0,1-1.3,0,.86.86,0,0,1-.27-.65v-5.83a5.15,5.15,0,0,0-.32-1.79,4.58,4.58,0,0,0-.9-1.47,4.23,4.23,0,0,0-1.4-1,4.16,4.16,0,0,0-1.73-.36,4.35,4.35,0,0,0-1.73.35,4.27,4.27,0,0,0-1.4,1,4.48,4.48,0,0,0-.92,1.46,5.11,5.11,0,0,0-.32,1.79v5.87a.92.92,0,0,1-.25.65.84.84,0,0,1-.64.25A.93.93,0,0,1,247.44,441.1Z" transform="translate(-113.7 -60.8)"/><path class="cls-2" d="M265.61,441a6.61,6.61,0,0,1-4-6.14,6.72,6.72,0,0,1,1.92-4.75,6.58,6.58,0,0,1,9.37,0,6.69,6.69,0,0,1,1.41,2.15,6.91,6.91,0,0,1,.5,2.6v5.62a.94.94,0,0,1-.27.67.92.92,0,0,1-.67.27.81.81,0,0,1-.64-.27.91.91,0,0,1-.25-.67v-1a6.46,6.46,0,0,1-4.76,2A6.51,6.51,0,0,1,265.61,441Zm4.45-1.68a4.43,4.43,0,0,0,1.53-1.06,4.57,4.57,0,0,0,1-1.55,4.88,4.88,0,0,0,.36-1.85,5,5,0,0,0-.36-1.88,4.38,4.38,0,0,0-1-1.55,4.75,4.75,0,0,0-1.53-1.05,4.8,4.8,0,0,0-1.89-.38,4.79,4.79,0,0,0-4.41,3,5,5,0,0,0-.36,1.88,4.88,4.88,0,0,0,.36,1.85,4.65,4.65,0,0,0,1,1.55,4.58,4.58,0,0,0,1.52,1.06,4.66,4.66,0,0,0,1.87.38A4.8,4.8,0,0,0,270.06,439.33Z" transform="translate(-113.7 -60.8)"/><path class="cls-2" d="M277.64,441.1a.86.86,0,0,1-.27-.65v-8a4.2,4.2,0,0,1,.33-1.66,4.31,4.31,0,0,1,.93-1.38,4.38,4.38,0,0,1,1.37-.93,4.19,4.19,0,0,1,1.65-.33,4.1,4.1,0,0,1,1.88.45,4.54,4.54,0,0,1,1.51,1.21,4.34,4.34,0,0,1,1.48-1.21,4.1,4.1,0,0,1,1.88-.45,4.28,4.28,0,0,1,1.66.33,4.47,4.47,0,0,1,1.41.92,4.21,4.21,0,0,1,.95,1.38,4,4,0,0,1,.34,1.65v8.06a.86.86,0,0,1-.27.65.92.92,0,0,1-.64.26.91.91,0,0,1-.65-.26.86.86,0,0,1-.27-.65v-7.91a2.45,2.45,0,0,0-.19-1,2.56,2.56,0,0,0-.53-.83,2.38,2.38,0,0,0-.81-.55,2.53,2.53,0,0,0-1-.2,2.44,2.44,0,0,0-1.68.68,2.5,2.5,0,0,0-.77,1.66.15.15,0,0,0,0,.07v8a.88.88,0,0,1-.27.65.89.89,0,0,1-.64.27.88.88,0,0,1-.65-.27.9.9,0,0,1-.25-.65v-7.87a2.7,2.7,0,0,0-.72-1.81,2.5,2.5,0,0,0-.79-.57,2.4,2.4,0,0,0-1-.19,2.53,2.53,0,0,0-.91.17,2.56,2.56,0,0,0-1.31,1.23,2.38,2.38,0,0,0-.25.88.15.15,0,0,0,0,.07v.08l0,8a.91.91,0,0,1-.28.65.92.92,0,0,1-1.28,0Z" transform="translate(-113.7 -60.8)"/><path class="cls-2" d="M298.6,441a6.72,6.72,0,0,1-2.14-1.44,6.63,6.63,0,0,1-1.45-7.29,6.62,6.62,0,0,1,1.45-2.16,6.54,6.54,0,0,1,2.14-1.43,6.61,6.61,0,0,1,5.14,0,6.8,6.8,0,0,1,2.15,1.43,6.72,6.72,0,0,1,1.44,2.14,6.55,6.55,0,0,1,.54,2.55.84.84,0,0,1-.24.62.87.87,0,0,1-.65.26H296.51a4.49,4.49,0,0,0,.51,1.59,4.89,4.89,0,0,0,1,1.31,4.78,4.78,0,0,0,1.44.87,4.51,4.51,0,0,0,1.67.32,4.9,4.9,0,0,0,1.34-.15,5.66,5.66,0,0,0,1.1-.48,1.07,1.07,0,0,1,.56-.17.82.82,0,0,1,.63.3,1,1,0,0,1,.26.66.81.81,0,0,1-.44.74,6.3,6.3,0,0,1-1.49.63,8.45,8.45,0,0,1-2,.22A6.59,6.59,0,0,1,298.6,441Zm7.41-6.85a4.71,4.71,0,0,0-1.57-3,4.88,4.88,0,0,0-1.49-.89,4.93,4.93,0,0,0-1.75-.32,4.74,4.74,0,0,0-1.76.33,4.65,4.65,0,0,0-1.47.91,4.58,4.58,0,0,0-1,1.36,4.51,4.51,0,0,0-.49,1.64Z" transform="translate(-113.7 -60.8)"/><path class="cls-2" d="M309.75,441.1a.86.86,0,0,1-.28-.64v-5.88a6.62,6.62,0,0,1,.47-2.47,6.18,6.18,0,0,1,1.31-2.07,6.21,6.21,0,0,1,6.86-1.38,6,6,0,0,1,2,1.37,6.44,6.44,0,0,1,1.3,2.05,6.88,6.88,0,0,1,.45,2.49v5.89a.88.88,0,0,1-.25.65.87.87,0,0,1-.65.25.91.91,0,0,1-.65-.25.89.89,0,0,1-.26-.65v-5.83a5.15,5.15,0,0,0-.32-1.79,4.76,4.76,0,0,0-.9-1.47,4.33,4.33,0,0,0-1.4-1,4.16,4.16,0,0,0-1.73-.36,4.26,4.26,0,0,0-3.13,1.33,4.48,4.48,0,0,0-.92,1.46,4.9,4.9,0,0,0-.33,1.79v5.87a.92.92,0,0,1-.24.65.86.86,0,0,1-.64.25A1,1,0,0,1,309.75,441.1Z" transform="translate(-113.7 -60.8)"/><path class="cls-2" d="M328.54,441a6.58,6.58,0,0,1-3.59-3.49,6.27,6.27,0,0,1-.52-2.56v-9.83a.93.93,0,0,1,.27-.66.89.89,0,0,1,.64-.27.94.94,0,0,1,.67.27.89.89,0,0,1,.28.66v3.13h6a.89.89,0,0,1,.65.27.9.9,0,0,1,.28.66.81.81,0,0,1-.27.62.93.93,0,0,1-.66.26h-6V435a4.56,4.56,0,0,0,.37,1.85,4.45,4.45,0,0,0,1,1.5,4.78,4.78,0,0,0,1.55,1,5.22,5.22,0,0,0,3.59.08,4.63,4.63,0,0,0,1.46-.88,2.27,2.27,0,0,1,.34-.23.84.84,0,0,1,.37-.07.75.75,0,0,1,.57.25.85.85,0,0,1,.24.61,1,1,0,0,1-.09.41,1.12,1.12,0,0,1-.25.35,5.82,5.82,0,0,1-2,1.24,6.56,6.56,0,0,1-2.37.42A6.84,6.84,0,0,1,328.54,441Z" transform="translate(-113.7 -60.8)"/><path class="cls-2" d="M340.68,441a6.72,6.72,0,0,1-2.14-1.44,6.59,6.59,0,0,1-1.45-2.14,6.64,6.64,0,0,1,0-5.15,6.78,6.78,0,0,1,1.45-2.16,6.54,6.54,0,0,1,2.14-1.43,6.61,6.61,0,0,1,5.14,0,6.8,6.8,0,0,1,2.15,1.43,6.72,6.72,0,0,1,1.44,2.14,6.38,6.38,0,0,1,.54,2.55.84.84,0,0,1-.24.62.87.87,0,0,1-.64.26H338.59a4.72,4.72,0,0,0,.52,1.59,4.67,4.67,0,0,0,1,1.31,5,5,0,0,0,1.44.87,4.51,4.51,0,0,0,1.67.32,4.9,4.9,0,0,0,1.34-.15,5.66,5.66,0,0,0,1.1-.48,1.07,1.07,0,0,1,.56-.17.8.8,0,0,1,.63.3,1,1,0,0,1,.26.66.81.81,0,0,1-.44.74,6.3,6.3,0,0,1-1.49.63,8.39,8.39,0,0,1-2,.22A6.59,6.59,0,0,1,340.68,441Zm7.41-6.85a4.71,4.71,0,0,0-1.57-3,4.94,4.94,0,0,0-3.24-1.21,4.66,4.66,0,0,0-1.75.33,4.44,4.44,0,0,0-1.47.91,4.61,4.61,0,0,0-1,1.36,4.72,4.72,0,0,0-.49,1.64Z" transform="translate(-113.7 -60.8)"/></g><g id="Capa_11" data-name="Capa 11"><circle class="cls-3" cx="86.58" cy="60.11" r="27.96"/><path class="cls-3" d="M278.43,146.18s13.78-15.63,12.71-30.95c0,0-24.22,24.93-34,31,0,0-13.14,10.18-26.18,15.11,0,0,3.9,7.51,25.86-3.53C256.85,157.76,271.93,152.91,278.43,146.18Z" transform="translate(-113.7 -60.8)"/><path class="cls-4" d="M292.65,155S312,139.23,313.42,120.9c0,0-24.57,19.83-36.39,26,0,0-19.56,12-41.35,15.7C235.68,162.64,254.64,171.35,292.65,155Z" transform="translate(-113.7 -60.8)"/><path class="cls-3" d="M143.58,122.77s-12.19-31-13.16-42c0,0-4.23,23.73-5.35,37.71A250.56,250.56,0,0,0,123,147.53s0,30.43,2.57,42.05c0,0,4.34,31,11.73,45.9,0,0,10.61,24.55,24.27,39.17,0,0,13.82,15.11,26.52,23.31,0,0,24.66,16.87,52.72,19.34,0,0-48.44-25.61-60-40.82,0,0-40.71-69.43-37.71-95.58Z" transform="translate(-113.7 -60.8)"/><path class="cls-4" d="M167.26,115.23s-6-12.06-9.73-46.13c0,0-17.68,44.84-18.64,103,0,0,1.37,45,14.18,70.07,0,0,10.89,25.71,31.14,44,0,0,28.61,25,60.91,32.14,0,0-65.63-48.54-65.63-64.18,0,0-15.64-49.07-13.5-70.29Z" transform="translate(-113.7 -60.8)"/><circle class="cls-4" cx="111.44" cy="54.43" r="27.96"/><circle class="cls-5" cx="135.37" cy="54.43" r="27.96"/><path class="cls-6" d="M245.12,318.37s-23.63-19.93-20.89-65.89c0,0,2.84-38.36,28.34-56.15,0,0,14.57-11.27,16.26-11.92,0,0,19-10.6,24-12.13a82.22,82.22,0,0,0,23.23-13.18s6.75-5.38,8.59-7.63c0,0,6.67-7.16,8.12-11.41,0,0,2.33-6.27,3-9,0,0-8,6.59-11.76,8.22l-14.51,8-16.21,7.44a145.86,145.86,0,0,1-35.12,8.92,58.06,58.06,0,0,1-37.6-7.07s-14.36-9.85-18.75-19.5c0,0-7.18-13.39-9.11-24.53,0,0-3-10.61-4.39-27.75v-24s-6.32,12.43-8.15,17.78c0,0-9.53,25.4-10.71,28.93,0,0-9,30-9.11,34.39,0,0-4.07,27-4.5,38,0,0-.64,20,1,28.71,0,0,4.39,24.54,9.64,37.08,0,0,6.21,15.64,16.82,28.28a141.84,141.84,0,0,0,17.79,19.72s13.6,10.07,22.93,14.89Z" transform="translate(-113.7 -60.8)"/><path class="cls-7" d="M120.14,168.05s-4.93,49.07,7.07,73.93c0,0,12.21,39.42,39.43,64.5,0,0,40.39,47.25,117.21,49.17,0,0,55.29,3.54,107.36-40.82,0,0-73,56.25-164.25,16.72,0,0-32.79-10.93-66.22-47.57,0,0-3.53,0-26.35-42.11C134.39,241.87,123.57,221.83,120.14,168.05Z" transform="translate(-113.7 -60.8)"/><path class="cls-7" d="M402.78,231.9s-5.46,50.9-58.18,85.4c0,0-58,38.58-124.39,6.85,0,0-30.32-15.4-44.41-35.66,0,0,25.16,21.84,74.34,29.88,0,0,54.61,13.08,93.82-13.5C344,304.87,388.64,280.76,402.78,231.9Z" transform="translate(-113.7 -60.8)"/><path class="cls-8" d="M336.48,131.56s-51.59,45.17-106.56,29.25c0,0-31.82-5.94-40.82-71.51V61.65s-24.75,44.68-30.21,93.54c0,0-14.14,67.18,24.75,118.29,0,0,23.78,28.92,59.78,44,0,0-10.6-12.21-18-46,0,0-8.67-53.68,36.65-82,0,0,15.43-10.6,30.21-16.07C292.28,173.51,328,162.26,336.48,131.56Z" transform="translate(-113.7 -60.8)"/><path class="cls-7" d="M120.14,168.05s-2.53,80.49,59.31,134.07c0,0,44.07,36.85,100.85,43,0,0,69.05,6.65,110.91-30.26,0,0-77.45,70.93-177.76,24.62,0,0-61-27.17-82.56-87.52C130.89,251.93,116.31,227.24,120.14,168.05Z" transform="translate(-113.7 -60.8)"/></g></svg>